<?xml version="1.0" encoding="UTF-8"?> <svg xmlns="http://www.w3.org/2000/svg" width="2900" height="224" viewBox="0 0 2900 224" fill="none"> <g clip-path="url(#clip0)"> <path opacity="0.2" d="M0 2L45.1875 14L90.375 2L135.562 14L180.75 2L225.938 14L271.125 2L316.312 14L361.5 2L406.688 14L451.875 2L497.062 14L542.25 2L587.438 14L632.625 2L677.812 14L723 2L768.188 14L813.375 2L858.562 14L903.75 2L948.938 14L994.125 2L1039.31 14L1084.5 2L1129.69 14L1174.88 2L1220.06 14L1265.25 2L1310.44 14L1355.62 2L1400.81 14L1446 2L1491.19 14L1536.38 2L1581.56 14L1626.75 2L1671.94 14L1717.12 2L1762.31 14L1807.5 2L1852.69 14L1897.88 2L1943.06 14L1988.25 2L2033.44 14L2078.62 2L2123.81 14L2169 2L2214.19 14L2259.38 2L2304.56 14L2349.75 2L2394.94 14L2440.12 2L2485.31 14L2530.5 2L2575.69 14L2620.88 2L2666.06 14L2711.25 2L2756.44 14L2801.62 2L2846.81 14L2892 2" stroke="#69C390" stroke-width="3" stroke-linecap="round"></path> <path opacity="0.2" d="M0 18L45.1875 30L90.375 18L135.562 30L180.75 18L225.938 30L271.125 18L316.312 30L361.5 18L406.688 30L451.875 18L497.062 30L542.25 18L587.438 30L632.625 18L677.812 30L723 18L768.188 30L813.375 18L858.562 30L903.75 18L948.938 30L994.125 18L1039.31 30L1084.5 18L1129.69 30L1174.88 18L1220.06 30L1265.25 18L1310.44 30L1355.62 18L1400.81 30L1446 18L1491.19 30L1536.38 18L1581.56 30L1626.75 18L1671.94 30L1717.12 18L1762.31 30L1807.5 18L1852.69 30L1897.88 18L1943.06 30L1988.25 18L2033.44 30L2078.62 18L2123.81 30L2169 18L2214.19 30L2259.38 18L2304.56 30L2349.75 18L2394.94 30L2440.12 18L2485.31 30L2530.5 18L2575.69 30L2620.88 18L2666.06 30L2711.25 18L2756.44 30L2801.62 18L2846.81 30L2892 18" stroke="#69C390" stroke-width="3" stroke-linecap="round"></path> <path opacity="0.2" d="M0 34L45.1875 46L90.375 34L135.562 46L180.75 34L225.938 46L271.125 34L316.312 46L361.5 34L406.688 46L451.875 34L497.062 46L542.25 34L587.438 46L632.625 34L677.812 46L723 34L768.188 46L813.375 34L858.562 46L903.75 34L948.938 46L994.125 34L1039.31 46L1084.5 34L1129.69 46L1174.88 34L1220.06 46L1265.25 34L1310.44 46L1355.62 34L1400.81 46L1446 34L1491.19 46L1536.38 34L1581.56 46L1626.75 34L1671.94 46L1717.12 34L1762.31 46L1807.5 34L1852.69 46L1897.88 34L1943.06 46L1988.25 34L2033.44 46L2078.62 34L2123.81 46L2169 34L2214.19 46L2259.38 34L2304.56 46L2349.75 34L2394.94 46L2440.12 34L2485.31 46L2530.5 34L2575.69 46L2620.88 34L2666.06 46L2711.25 34L2756.44 46L2801.62 34L2846.81 46L2892 34" stroke="#69C390" stroke-width="3" stroke-linecap="round"></path> <path opacity="0.2" d="M0 50L45.1875 62L90.375 50L135.562 62L180.75 50L225.938 62L271.125 50L316.312 62L361.5 50L406.688 62L451.875 50L497.062 62L542.25 50L587.438 62L632.625 50L677.812 62L723 50L768.188 62L813.375 50L858.562 62L903.75 50L948.938 62L994.125 50L1039.31 62L1084.5 50L1129.69 62L1174.88 50L1220.06 62L1265.25 50L1310.44 62L1355.62 50L1400.81 62L1446 50L1491.19 62L1536.38 50L1581.56 62L1626.75 50L1671.94 62L1717.12 50L1762.31 62L1807.5 50L1852.69 62L1897.88 50L1943.06 62L1988.25 50L2033.44 62L2078.62 50L2123.81 62L2169 50L2214.19 62L2259.38 50L2304.56 62L2349.75 50L2394.94 62L2440.12 50L2485.31 62L2530.5 50L2575.69 62L2620.88 50L2666.06 62L2711.25 50L2756.44 62L2801.62 50L2846.81 62L2892 50" stroke="#69C390" stroke-width="3" stroke-linecap="round"></path> <path opacity="0.2" d="M0 66L45.1875 78L90.375 66L135.562 78L180.75 66L225.938 78L271.125 66L316.312 78L361.5 66L406.688 78L451.875 66L497.062 78L542.25 66L587.438 78L632.625 66L677.812 78L723 66L768.188 78L813.375 66L858.562 78L903.75 66L948.938 78L994.125 66L1039.31 78L1084.5 66L1129.69 78L1174.88 66L1220.06 78L1265.25 66L1310.44 78L1355.62 66L1400.81 78L1446 66L1491.19 78L1536.38 66L1581.56 78L1626.75 66L1671.94 78L1717.12 66L1762.31 78L1807.5 66L1852.69 78L1897.88 66L1943.06 78L1988.25 66L2033.44 78L2078.62 66L2123.81 78L2169 66L2214.19 78L2259.38 66L2304.56 78L2349.75 66L2394.94 78L2440.12 66L2485.31 78L2530.5 66L2575.69 78L2620.88 66L2666.06 78L2711.25 66L2756.44 78L2801.62 66L2846.81 78L2892 66" stroke="#69C390" stroke-width="3" stroke-linecap="round"></path> <path opacity="0.2" d="M0 82L45.1875 94L90.375 82L135.562 94L180.75 82L225.938 94L271.125 82L316.312 94L361.5 82L406.688 94L451.875 82L497.062 94L542.25 82L587.438 94L632.625 82L677.812 94L723 82L768.188 94L813.375 82L858.562 94L903.75 82L948.938 94L994.125 82L1039.31 94L1084.5 82L1129.69 94L1174.88 82L1220.06 94L1265.25 82L1310.44 94L1355.62 82L1400.81 94L1446 82L1491.19 94L1536.38 82L1581.56 94L1626.75 82L1671.94 94L1717.12 82L1762.31 94L1807.5 82L1852.69 94L1897.88 82L1943.06 94L1988.25 82L2033.44 94L2078.62 82L2123.81 94L2169 82L2214.19 94L2259.38 82L2304.56 94L2349.75 82L2394.94 94L2440.12 82L2485.31 94L2530.5 82L2575.69 94L2620.88 82L2666.06 94L2711.25 82L2756.44 94L2801.62 82L2846.81 94L2892 82" stroke="#69C390" stroke-width="3" stroke-linecap="round"></path> <path opacity="0.2" d="M0 98L45.1875 110L90.375 98L135.562 110L180.75 98L225.938 110L271.125 98L316.312 110L361.5 98L406.688 110L451.875 98L497.062 110L542.25 98L587.438 110L632.625 98L677.812 110L723 98L768.188 110L813.375 98L858.562 110L903.75 98L948.938 110L994.125 98L1039.31 110L1084.5 98L1129.69 110L1174.88 98L1220.06 110L1265.25 98L1310.44 110L1355.62 98L1400.81 110L1446 98L1491.19 110L1536.38 98L1581.56 110L1626.75 98L1671.94 110L1717.12 98L1762.31 110L1807.5 98L1852.69 110L1897.88 98L1943.06 110L1988.25 98L2033.44 110L2078.62 98L2123.81 110L2169 98L2214.19 110L2259.38 98L2304.56 110L2349.75 98L2394.94 110L2440.12 98L2485.31 110L2530.5 98L2575.69 110L2620.88 98L2666.06 110L2711.25 98L2756.44 110L2801.62 98L2846.81 110L2892 98" stroke="#69C390" stroke-width="3" stroke-linecap="round"></path> <path opacity="0.2" d="M0 114L45.1875 126L90.375 114L135.562 126L180.75 114L225.938 126L271.125 114L316.312 126L361.5 114L406.688 126L451.875 114L497.062 126L542.25 114L587.438 126L632.625 114L677.812 126L723 114L768.188 126L813.375 114L858.562 126L903.75 114L948.938 126L994.125 114L1039.31 126L1084.5 114L1129.69 126L1174.88 114L1220.06 126L1265.25 114L1310.44 126L1355.62 114L1400.81 126L1446 114L1491.19 126L1536.38 114L1581.56 126L1626.75 114L1671.94 126L1717.12 114L1762.31 126L1807.5 114L1852.69 126L1897.88 114L1943.06 126L1988.25 114L2033.44 126L2078.62 114L2123.81 126L2169 114L2214.19 126L2259.38 114L2304.56 126L2349.75 114L2394.94 126L2440.12 114L2485.31 126L2530.5 114L2575.69 126L2620.88 114L2666.06 126L2711.25 114L2756.44 126L2801.62 114L2846.81 126L2892 114" stroke="#69C390" stroke-width="3" stroke-linecap="round"></path> <path opacity="0.2" d="M0 130L45.1875 142L90.375 130L135.562 142L180.75 130L225.938 142L271.125 130L316.312 142L361.5 130L406.688 142L451.875 130L497.062 142L542.25 130L587.438 142L632.625 130L677.812 142L723 130L768.188 142L813.375 130L858.562 142L903.75 130L948.938 142L994.125 130L1039.31 142L1084.5 130L1129.69 142L1174.88 130L1220.06 142L1265.25 130L1310.44 142L1355.62 130L1400.81 142L1446 130L1491.19 142L1536.38 130L1581.56 142L1626.75 130L1671.94 142L1717.12 130L1762.31 142L1807.5 130L1852.69 142L1897.88 130L1943.06 142L1988.25 130L2033.44 142L2078.62 130L2123.81 142L2169 130L2214.19 142L2259.38 130L2304.56 142L2349.75 130L2394.94 142L2440.12 130L2485.31 142L2530.5 130L2575.69 142L2620.88 130L2666.06 142L2711.25 130L2756.44 142L2801.62 130L2846.81 142L2892 130" stroke="#69C390" stroke-width="3" stroke-linecap="round"></path> <path opacity="0.2" d="M0 146L45.1875 158L90.375 146L135.562 158L180.75 146L225.938 158L271.125 146L316.312 158L361.5 146L406.688 158L451.875 146L497.062 158L542.25 146L587.438 158L632.625 146L677.812 158L723 146L768.188 158L813.375 146L858.562 158L903.75 146L948.938 158L994.125 146L1039.31 158L1084.5 146L1129.69 158L1174.88 146L1220.06 158L1265.25 146L1310.44 158L1355.62 146L1400.81 158L1446 146L1491.19 158L1536.38 146L1581.56 158L1626.75 146L1671.94 158L1717.12 146L1762.31 158L1807.5 146L1852.69 158L1897.88 146L1943.06 158L1988.25 146L2033.44 158L2078.62 146L2123.81 158L2169 146L2214.19 158L2259.38 146L2304.56 158L2349.75 146L2394.94 158L2440.12 146L2485.31 158L2530.5 146L2575.69 158L2620.88 146L2666.06 158L2711.25 146L2756.44 158L2801.62 146L2846.81 158L2892 146" stroke="#69C390" stroke-width="3" stroke-linecap="round"></path> <path opacity="0.2" d="M0 162L45.1875 174L90.375 162L135.562 174L180.75 162L225.938 174L271.125 162L316.312 174L361.5 162L406.688 174L451.875 162L497.062 174L542.25 162L587.438 174L632.625 162L677.812 174L723 162L768.188 174L813.375 162L858.562 174L903.75 162L948.938 174L994.125 162L1039.31 174L1084.5 162L1129.69 174L1174.88 162L1220.06 174L1265.25 162L1310.44 174L1355.62 162L1400.81 174L1446 162L1491.19 174L1536.38 162L1581.56 174L1626.75 162L1671.94 174L1717.12 162L1762.31 174L1807.5 162L1852.69 174L1897.88 162L1943.06 174L1988.25 162L2033.44 174L2078.62 162L2123.81 174L2169 162L2214.19 174L2259.38 162L2304.56 174L2349.75 162L2394.94 174L2440.12 162L2485.31 174L2530.5 162L2575.69 174L2620.88 162L2666.06 174L2711.25 162L2756.44 174L2801.62 162L2846.81 174L2892 162" stroke="#69C390" stroke-width="3" stroke-linecap="round"></path> <path opacity="0.2" d="M0 178L45.1875 190L90.375 178L135.562 190L180.75 178L225.938 190L271.125 178L316.312 190L361.5 178L406.688 190L451.875 178L497.062 190L542.25 178L587.438 190L632.625 178L677.812 190L723 178L768.188 190L813.375 178L858.562 190L903.75 178L948.938 190L994.125 178L1039.31 190L1084.5 178L1129.69 190L1174.88 178L1220.06 190L1265.25 178L1310.44 190L1355.62 178L1400.81 190L1446 178L1491.19 190L1536.38 178L1581.56 190L1626.75 178L1671.94 190L1717.12 178L1762.31 190L1807.5 178L1852.69 190L1897.88 178L1943.06 190L1988.25 178L2033.44 190L2078.62 178L2123.81 190L2169 178L2214.19 190L2259.38 178L2304.56 190L2349.75 178L2394.94 190L2440.12 178L2485.31 190L2530.5 178L2575.69 190L2620.88 178L2666.06 190L2711.25 178L2756.44 190L2801.62 178L2846.81 190L2892 178" stroke="#69C390" stroke-width="3" stroke-linecap="round"></path> <path opacity="0.2" d="M0 194L45.1875 206L90.375 194L135.562 206L180.75 194L225.938 206L271.125 194L316.312 206L361.5 194L406.688 206L451.875 194L497.062 206L542.25 194L587.438 206L632.625 194L677.812 206L723 194L768.188 206L813.375 194L858.562 206L903.75 194L948.938 206L994.125 194L1039.31 206L1084.5 194L1129.69 206L1174.88 194L1220.06 206L1265.25 194L1310.44 206L1355.62 194L1400.81 206L1446 194L1491.19 206L1536.38 194L1581.56 206L1626.75 194L1671.94 206L1717.12 194L1762.31 206L1807.5 194L1852.69 206L1897.88 194L1943.06 206L1988.25 194L2033.44 206L2078.62 194L2123.81 206L2169 194L2214.19 206L2259.38 194L2304.56 206L2349.75 194L2394.94 206L2440.12 194L2485.31 206L2530.5 194L2575.69 206L2620.88 194L2666.06 206L2711.25 194L2756.44 206L2801.62 194L2846.81 206L2892 194" stroke="#69C390" stroke-width="3" stroke-linecap="round"></path> <path opacity="0.2" d="M0 210L45.1875 222L90.375 210L135.562 222L180.75 210L225.938 222L271.125 210L316.312 222L361.5 210L406.688 222L451.875 210L497.062 222L542.25 210L587.438 222L632.625 210L677.812 222L723 210L768.188 222L813.375 210L858.562 222L903.75 210L948.938 222L994.125 210L1039.31 222L1084.5 210L1129.69 222L1174.88 210L1220.06 222L1265.25 210L1310.44 222L1355.62 210L1400.81 222L1446 210L1491.19 222L1536.38 210L1581.56 222L1626.75 210L1671.94 222L1717.12 210L1762.31 222L1807.5 210L1852.69 222L1897.88 210L1943.06 222L1988.25 210L2033.44 222L2078.62 210L2123.81 222L2169 210L2214.19 222L2259.38 210L2304.56 222L2349.75 210L2394.94 222L2440.12 210L2485.31 222L2530.5 210L2575.69 222L2620.88 210L2666.06 222L2711.25 210L2756.44 222L2801.62 210L2846.81 222L2892 210" stroke="#69C390" stroke-width="3" stroke-linecap="round"></path> </g> <defs> <clipPath id="clip0"> <rect width="2900" height="224" fill="white"></rect> </clipPath> </defs> </svg> 