<?xml version="1.0" encoding="UTF-8"?> <svg xmlns="http://www.w3.org/2000/svg" width="117" height="12" viewBox="0 0 117 12" fill="none"> <path d="M7.128 6.256C8.14133 6.34133 8.93067 6.61867 9.496 7.088C10.072 7.55733 10.36 8.208 10.36 9.04C10.36 9.97867 10.0027 10.7093 9.288 11.232C8.57333 11.744 7.59733 12 6.36 12H0.456V0.799999H6.328C7.42667 0.799999 8.312 1.05067 8.984 1.552C9.66667 2.04267 10.008 2.736 10.008 3.632C10.008 4.38933 9.752 4.99733 9.24 5.456C8.728 5.904 8.024 6.17067 7.128 6.256ZM8.488 3.856C8.488 3.26933 8.28 2.816 7.864 2.496C7.448 2.16533 6.89867 2 6.216 2H1.992V5.728H6.264C6.92533 5.728 7.45867 5.56267 7.864 5.232C8.28 4.89067 8.488 4.432 8.488 3.856ZM6.216 10.8C7.03733 10.8 7.67733 10.6347 8.136 10.304C8.59467 9.97333 8.824 9.48267 8.824 8.832C8.824 8.20267 8.6 7.72267 8.152 7.392C7.704 7.06133 7.096 6.896 6.328 6.896H1.992V10.8H6.216ZM14.1014 10.784H21.4774V12H12.5654V0.799999H21.2054V2.016H14.1014V5.728H19.7334V6.88H14.1014V10.784ZM25.1951 10.784H32.5711V12H23.6591V0.799999H32.2991V2.016H25.1951V5.728H30.8271V6.88H25.1951V10.784ZM43.5529 0.799999V2.064H39.4089V12H37.8729V2.064H33.7289V0.799999H43.5529Z" fill="#FF009D"></path> <path d="M44.9604 4.464V0.799999H46.7364V2L45.7444 4.464H44.9604Z" fill="#039F2F"></path> <path d="M55.6749 6.256C56.6882 6.34133 57.4775 6.61867 58.0429 7.088C58.6189 7.55733 58.9069 8.208 58.9069 9.04C58.9069 9.97867 58.5495 10.7093 57.8349 11.232C57.1202 11.744 56.1442 12 54.9069 12H49.0029V0.799999H54.8749C55.9735 0.799999 56.8589 1.05067 57.5309 1.552C58.2135 2.04267 58.5549 2.736 58.5549 3.632C58.5549 4.38933 58.2989 4.99733 57.7869 5.456C57.2749 5.904 56.5709 6.17067 55.6749 6.256ZM57.0349 3.856C57.0349 3.26933 56.8269 2.816 56.4109 2.496C55.9949 2.16533 55.4455 2 54.7629 2H50.5389V5.728H54.8109C55.4722 5.728 56.0055 5.56267 56.4109 5.232C56.8269 4.89067 57.0349 4.432 57.0349 3.856ZM54.7629 10.8C55.5842 10.8 56.2242 10.6347 56.6829 10.304C57.1415 9.97333 57.3709 9.48267 57.3709 8.832C57.3709 8.20267 57.1469 7.72267 56.6989 7.392C56.2509 7.06133 55.6429 6.896 54.8749 6.896H50.5389V10.8H54.7629ZM69.9324 12L68.7324 9.088H62.5564L61.3564 12H59.8204L64.5244 0.799999H66.8124L71.5164 12H69.9324ZM63.0364 7.904H68.2524L65.6444 1.552L63.0364 7.904ZM81.5554 12L77.7314 7.424H74.8514V12H73.3154V0.799999H79.0914C80.2327 0.799999 81.166 1.08267 81.8914 1.648C82.6167 2.20267 82.9794 3.03467 82.9794 4.144C82.9794 5.18933 82.654 5.984 82.0034 6.528C81.3634 7.06133 80.51 7.35467 79.4434 7.408L83.4754 12H81.5554ZM74.8514 2.032V6.24H78.9634C79.71 6.24 80.3074 6.05867 80.7554 5.696C81.214 5.33333 81.4434 4.816 81.4434 4.144C81.4434 3.46133 81.214 2.93867 80.7554 2.576C80.3074 2.21333 79.71 2.032 78.9634 2.032H74.8514ZM93.5554 12L89.7314 7.424H86.8514V12H85.3154V0.799999H91.0914C92.2327 0.799999 93.166 1.08267 93.8914 1.648C94.6167 2.20267 94.9794 3.03467 94.9794 4.144C94.9794 5.18933 94.654 5.984 94.0034 6.528C93.3634 7.06133 92.51 7.35467 91.4434 7.408L95.4754 12H93.5554ZM86.8514 2.032V6.24H90.9634C91.71 6.24 92.3074 6.05867 92.7554 5.696C93.214 5.33333 93.4434 4.816 93.4434 4.144C93.4434 3.46133 93.214 2.93867 92.7554 2.576C92.3074 2.21333 91.71 2.032 90.9634 2.032H86.8514ZM98.8514 10.784H106.227V12H97.3154V0.799999H105.955V2.016H98.8514V5.728H104.483V6.88H98.8514V10.784ZM109.945 10.736H116.345V12H108.409V0.799999H109.945V10.736Z" fill="#635F6D"></path> </svg> 