<?xml version="1.0" encoding="UTF-8"?> <svg xmlns="http://www.w3.org/2000/svg" width="2900" height="464" viewBox="0 0 2900 464" fill="none"> <g opacity="0.2" clip-path="url(#clip0)"> <path d="M0 2L45.1875 14L90.375 2L135.562 14L180.75 2L225.938 14L271.125 2L316.312 14L361.5 2L406.688 14L451.875 2L497.062 14L542.25 2L587.438 14L632.625 2L677.812 14L723 2L768.188 14L813.375 2L858.562 14L903.75 2L948.938 14L994.125 2L1039.31 14L1084.5 2L1129.69 14L1174.88 2L1220.06 14L1265.25 2L1310.44 14L1355.62 2L1400.81 14L1446 2" stroke="#69C390" stroke-width="3" stroke-linecap="round"></path> <path d="M1446 2L1491.19 14L1536.38 2L1581.56 14L1626.75 2L1671.94 14L1717.12 2L1762.31 14L1807.5 2L1852.69 14L1897.88 2L1943.06 14L1988.25 2L2033.44 14L2078.62 2L2123.81 14L2169 2L2214.19 14L2259.38 2L2304.56 14L2349.75 2L2394.94 14L2440.12 2L2485.31 14L2530.5 2L2575.69 14L2620.88 2L2666.06 14L2711.25 2L2756.44 14L2801.62 2L2846.81 14L2892 2" stroke="#69C390" stroke-width="3" stroke-linecap="round"></path> <path d="M0 18L45.1875 30L90.375 18L135.562 30L180.75 18L225.938 30L271.125 18L316.312 30L361.5 18L406.688 30L451.875 18L497.062 30L542.25 18L587.438 30L632.625 18L677.812 30L723 18L768.188 30L813.375 18L858.562 30L903.75 18L948.938 30L994.125 18L1039.31 30L1084.5 18L1129.69 30L1174.88 18L1220.06 30L1265.25 18L1310.44 30L1355.62 18L1400.81 30L1446 18" stroke="#69C390" stroke-width="3" stroke-linecap="round"></path> <path d="M1446 18L1491.19 30L1536.38 18L1581.56 30L1626.75 18L1671.94 30L1717.12 18L1762.31 30L1807.5 18L1852.69 30L1897.88 18L1943.06 30L1988.25 18L2033.44 30L2078.62 18L2123.81 30L2169 18L2214.19 30L2259.38 18L2304.56 30L2349.75 18L2394.94 30L2440.12 18L2485.31 30L2530.5 18L2575.69 30L2620.88 18L2666.06 30L2711.25 18L2756.44 30L2801.62 18L2846.81 30L2892 18" stroke="#69C390" stroke-width="3" stroke-linecap="round"></path> <path d="M0 34L45.1875 46L90.375 34L135.562 46L180.75 34L225.938 46L271.125 34L316.312 46L361.5 34L406.688 46L451.875 34L497.062 46L542.25 34L587.438 46L632.625 34L677.812 46L723 34L768.188 46L813.375 34L858.562 46L903.75 34L948.938 46L994.125 34L1039.31 46L1084.5 34L1129.69 46L1174.88 34L1220.06 46L1265.25 34L1310.44 46L1355.62 34L1400.81 46L1446 34" stroke="#69C390" stroke-width="3" stroke-linecap="round"></path> <path d="M1446 34L1491.19 46L1536.38 34L1581.56 46L1626.75 34L1671.94 46L1717.12 34L1762.31 46L1807.5 34L1852.69 46L1897.88 34L1943.06 46L1988.25 34L2033.44 46L2078.62 34L2123.81 46L2169 34L2214.19 46L2259.38 34L2304.56 46L2349.75 34L2394.94 46L2440.12 34L2485.31 46L2530.5 34L2575.69 46L2620.88 34L2666.06 46L2711.25 34L2756.44 46L2801.62 34L2846.81 46L2892 34" stroke="#69C390" stroke-width="3" stroke-linecap="round"></path> <path d="M0 50L45.1875 62L90.375 50L135.562 62L180.75 50L225.938 62L271.125 50L316.312 62L361.5 50L406.688 62L451.875 50L497.062 62L542.25 50L587.438 62L632.625 50L677.812 62L723 50L768.188 62L813.375 50L858.562 62L903.75 50L948.938 62L994.125 50L1039.31 62L1084.5 50L1129.69 62L1174.88 50L1220.06 62L1265.25 50L1310.44 62L1355.62 50L1400.81 62L1446 50" stroke="#69C390" stroke-width="3" stroke-linecap="round"></path> <path d="M1446 50L1491.19 62L1536.38 50L1581.56 62L1626.75 50L1671.94 62L1717.12 50L1762.31 62L1807.5 50L1852.69 62L1897.88 50L1943.06 62L1988.25 50L2033.44 62L2078.62 50L2123.81 62L2169 50L2214.19 62L2259.38 50L2304.56 62L2349.75 50L2394.94 62L2440.12 50L2485.31 62L2530.5 50L2575.69 62L2620.88 50L2666.06 62L2711.25 50L2756.44 62L2801.62 50L2846.81 62L2892 50" stroke="#69C390" stroke-width="3" stroke-linecap="round"></path> <path d="M0 66L45.1875 78L90.375 66L135.562 78L180.75 66L225.938 78L271.125 66L316.312 78L361.5 66L406.688 78L451.875 66L497.062 78L542.25 66L587.438 78L632.625 66L677.812 78L723 66L768.188 78L813.375 66L858.562 78L903.75 66L948.938 78L994.125 66L1039.31 78L1084.5 66L1129.69 78L1174.88 66L1220.06 78L1265.25 66L1310.44 78L1355.62 66L1400.81 78L1446 66" stroke="#69C390" stroke-width="3" stroke-linecap="round"></path> <path d="M1446 66L1491.19 78L1536.38 66L1581.56 78L1626.75 66L1671.94 78L1717.12 66L1762.31 78L1807.5 66L1852.69 78L1897.88 66L1943.06 78L1988.25 66L2033.44 78L2078.62 66L2123.81 78L2169 66L2214.19 78L2259.38 66L2304.56 78L2349.75 66L2394.94 78L2440.12 66L2485.31 78L2530.5 66L2575.69 78L2620.88 66L2666.06 78L2711.25 66L2756.44 78L2801.62 66L2846.81 78L2892 66" stroke="#69C390" stroke-width="3" stroke-linecap="round"></path> <path d="M0 82L45.1875 94L90.375 82L135.562 94L180.75 82L225.938 94L271.125 82L316.312 94L361.5 82L406.688 94L451.875 82L497.062 94L542.25 82L587.438 94L632.625 82L677.812 94L723 82L768.188 94L813.375 82L858.562 94L903.75 82L948.938 94L994.125 82L1039.31 94L1084.5 82L1129.69 94L1174.88 82L1220.06 94L1265.25 82L1310.44 94L1355.62 82L1400.81 94L1446 82" stroke="#69C390" stroke-width="3" stroke-linecap="round"></path> <path d="M1446 82L1491.19 94L1536.38 82L1581.56 94L1626.75 82L1671.94 94L1717.12 82L1762.31 94L1807.5 82L1852.69 94L1897.88 82L1943.06 94L1988.25 82L2033.44 94L2078.62 82L2123.81 94L2169 82L2214.19 94L2259.38 82L2304.56 94L2349.75 82L2394.94 94L2440.12 82L2485.31 94L2530.5 82L2575.69 94L2620.88 82L2666.06 94L2711.25 82L2756.44 94L2801.62 82L2846.81 94L2892 82" stroke="#69C390" stroke-width="3" stroke-linecap="round"></path> <path d="M0 98L45.1875 110L90.375 98L135.562 110L180.75 98L225.938 110L271.125 98L316.312 110L361.5 98L406.688 110L451.875 98L497.062 110L542.25 98L587.438 110L632.625 98L677.812 110L723 98L768.188 110L813.375 98L858.562 110L903.75 98L948.938 110L994.125 98L1039.31 110L1084.5 98L1129.69 110L1174.88 98L1220.06 110L1265.25 98L1310.44 110L1355.62 98L1400.81 110L1446 98" stroke="#69C390" stroke-width="3" stroke-linecap="round"></path> <path d="M1446 98L1491.19 110L1536.38 98L1581.56 110L1626.75 98L1671.94 110L1717.12 98L1762.31 110L1807.5 98L1852.69 110L1897.88 98L1943.06 110L1988.25 98L2033.44 110L2078.62 98L2123.81 110L2169 98L2214.19 110L2259.38 98L2304.56 110L2349.75 98L2394.94 110L2440.12 98L2485.31 110L2530.5 98L2575.69 110L2620.88 98L2666.06 110L2711.25 98L2756.44 110L2801.62 98L2846.81 110L2892 98" stroke="#69C390" stroke-width="3" stroke-linecap="round"></path> <path d="M0 114L45.1875 126L90.375 114L135.562 126L180.75 114L225.938 126L271.125 114L316.312 126L361.5 114L406.688 126L451.875 114L497.062 126L542.25 114L587.438 126L632.625 114L677.812 126L723 114L768.188 126L813.375 114L858.562 126L903.75 114L948.938 126L994.125 114L1039.31 126L1084.5 114L1129.69 126L1174.88 114L1220.06 126L1265.25 114L1310.44 126L1355.62 114L1400.81 126L1446 114" stroke="#69C390" stroke-width="3" stroke-linecap="round"></path> <path d="M1446 114L1491.19 126L1536.38 114L1581.56 126L1626.75 114L1671.94 126L1717.12 114L1762.31 126L1807.5 114L1852.69 126L1897.88 114L1943.06 126L1988.25 114L2033.44 126L2078.62 114L2123.81 126L2169 114L2214.19 126L2259.38 114L2304.56 126L2349.75 114L2394.94 126L2440.12 114L2485.31 126L2530.5 114L2575.69 126L2620.88 114L2666.06 126L2711.25 114L2756.44 126L2801.62 114L2846.81 126L2892 114" stroke="#69C390" stroke-width="3" stroke-linecap="round"></path> <path d="M0 130L45.1875 142L90.375 130L135.562 142L180.75 130L225.938 142L271.125 130L316.312 142L361.5 130L406.688 142L451.875 130L497.062 142L542.25 130L587.438 142L632.625 130L677.812 142L723 130L768.188 142L813.375 130L858.562 142L903.75 130L948.938 142L994.125 130L1039.31 142L1084.5 130L1129.69 142L1174.88 130L1220.06 142L1265.25 130L1310.44 142L1355.62 130L1400.81 142L1446 130" stroke="#69C390" stroke-width="3" stroke-linecap="round"></path> <path d="M1446 130L1491.19 142L1536.38 130L1581.56 142L1626.75 130L1671.94 142L1717.12 130L1762.31 142L1807.5 130L1852.69 142L1897.88 130L1943.06 142L1988.25 130L2033.44 142L2078.62 130L2123.81 142L2169 130L2214.19 142L2259.38 130L2304.56 142L2349.75 130L2394.94 142L2440.12 130L2485.31 142L2530.5 130L2575.69 142L2620.88 130L2666.06 142L2711.25 130L2756.44 142L2801.62 130L2846.81 142L2892 130" stroke="#69C390" stroke-width="3" stroke-linecap="round"></path> <path d="M0 146L45.1875 158L90.375 146L135.562 158L180.75 146L225.938 158L271.125 146L316.312 158L361.5 146L406.688 158L451.875 146L497.062 158L542.25 146L587.438 158L632.625 146L677.812 158L723 146L768.188 158L813.375 146L858.562 158L903.75 146L948.938 158L994.125 146L1039.31 158L1084.5 146L1129.69 158L1174.88 146L1220.06 158L1265.25 146L1310.44 158L1355.62 146L1400.81 158L1446 146" stroke="#69C390" stroke-width="3" stroke-linecap="round"></path> <path d="M1446 146L1491.19 158L1536.38 146L1581.56 158L1626.75 146L1671.94 158L1717.12 146L1762.31 158L1807.5 146L1852.69 158L1897.88 146L1943.06 158L1988.25 146L2033.44 158L2078.62 146L2123.81 158L2169 146L2214.19 158L2259.38 146L2304.56 158L2349.75 146L2394.94 158L2440.12 146L2485.31 158L2530.5 146L2575.69 158L2620.88 146L2666.06 158L2711.25 146L2756.44 158L2801.62 146L2846.81 158L2892 146" stroke="#69C390" stroke-width="3" stroke-linecap="round"></path> <path d="M0 306L45.1875 318L90.375 306L135.562 318L180.75 306L225.938 318L271.125 306L316.312 318L361.5 306L406.688 318L451.875 306L497.062 318L542.25 306L587.438 318L632.625 306L677.812 318L723 306L768.188 318L813.375 306L858.562 318L903.75 306L948.938 318L994.125 306L1039.31 318L1084.5 306L1129.69 318L1174.88 306L1220.06 318L1265.25 306L1310.44 318L1355.62 306L1400.81 318L1446 306" stroke="#69C390" stroke-width="3" stroke-linecap="round"></path> <path d="M1446 306L1491.19 318L1536.38 306L1581.56 318L1626.75 306L1671.94 318L1717.12 306L1762.31 318L1807.5 306L1852.69 318L1897.88 306L1943.06 318L1988.25 306L2033.44 318L2078.62 306L2123.81 318L2169 306L2214.19 318L2259.38 306L2304.56 318L2349.75 306L2394.94 318L2440.12 306L2485.31 318L2530.5 306L2575.69 318L2620.88 306L2666.06 318L2711.25 306L2756.44 318L2801.62 306L2846.81 318L2892 306" stroke="#69C390" stroke-width="3" stroke-linecap="round"></path> <path d="M0 162L45.1875 174L90.375 162L135.562 174L180.75 162L225.938 174L271.125 162L316.312 174L361.5 162L406.688 174L451.875 162L497.062 174L542.25 162L587.438 174L632.625 162L677.812 174L723 162L768.188 174L813.375 162L858.562 174L903.75 162L948.938 174L994.125 162L1039.31 174L1084.5 162L1129.69 174L1174.88 162L1220.06 174L1265.25 162L1310.44 174L1355.62 162L1400.81 174L1446 162" stroke="#69C390" stroke-width="3" stroke-linecap="round"></path> <path d="M1446 162L1491.19 174L1536.38 162L1581.56 174L1626.75 162L1671.94 174L1717.12 162L1762.31 174L1807.5 162L1852.69 174L1897.88 162L1943.06 174L1988.25 162L2033.44 174L2078.62 162L2123.81 174L2169 162L2214.19 174L2259.38 162L2304.56 174L2349.75 162L2394.94 174L2440.12 162L2485.31 174L2530.5 162L2575.69 174L2620.88 162L2666.06 174L2711.25 162L2756.44 174L2801.62 162L2846.81 174L2892 162" stroke="#69C390" stroke-width="3" stroke-linecap="round"></path> <path d="M0 322L45.1875 334L90.375 322L135.562 334L180.75 322L225.938 334L271.125 322L316.312 334L361.5 322L406.688 334L451.875 322L497.062 334L542.25 322L587.438 334L632.625 322L677.812 334L723 322L768.188 334L813.375 322L858.562 334L903.75 322L948.938 334L994.125 322L1039.31 334L1084.5 322L1129.69 334L1174.88 322L1220.06 334L1265.25 322L1310.44 334L1355.62 322L1400.81 334L1446 322" stroke="#69C390" stroke-width="3" stroke-linecap="round"></path> <path d="M1446 322L1491.19 334L1536.38 322L1581.56 334L1626.75 322L1671.94 334L1717.12 322L1762.31 334L1807.5 322L1852.69 334L1897.88 322L1943.06 334L1988.25 322L2033.44 334L2078.62 322L2123.81 334L2169 322L2214.19 334L2259.38 322L2304.56 334L2349.75 322L2394.94 334L2440.12 322L2485.31 334L2530.5 322L2575.69 334L2620.88 322L2666.06 334L2711.25 322L2756.44 334L2801.62 322L2846.81 334L2892 322" stroke="#69C390" stroke-width="3" stroke-linecap="round"></path> <path d="M0 178L45.1875 190L90.375 178L135.562 190L180.75 178L225.938 190L271.125 178L316.312 190L361.5 178L406.688 190L451.875 178L497.062 190L542.25 178L587.438 190L632.625 178L677.812 190L723 178L768.188 190L813.375 178L858.562 190L903.75 178L948.938 190L994.125 178L1039.31 190L1084.5 178L1129.69 190L1174.88 178L1220.06 190L1265.25 178L1310.44 190L1355.62 178L1400.81 190L1446 178" stroke="#69C390" stroke-width="3" stroke-linecap="round"></path> <path d="M1446 178L1491.19 190L1536.38 178L1581.56 190L1626.75 178L1671.94 190L1717.12 178L1762.31 190L1807.5 178L1852.69 190L1897.88 178L1943.06 190L1988.25 178L2033.44 190L2078.62 178L2123.81 190L2169 178L2214.19 190L2259.38 178L2304.56 190L2349.75 178L2394.94 190L2440.12 178L2485.31 190L2530.5 178L2575.69 190L2620.88 178L2666.06 190L2711.25 178L2756.44 190L2801.62 178L2846.81 190L2892 178" stroke="#69C390" stroke-width="3" stroke-linecap="round"></path> <path d="M0 338L45.1875 350L90.375 338L135.562 350L180.75 338L225.938 350L271.125 338L316.312 350L361.5 338L406.688 350L451.875 338L497.062 350L542.25 338L587.438 350L632.625 338L677.812 350L723 338L768.188 350L813.375 338L858.562 350L903.75 338L948.938 350L994.125 338L1039.31 350L1084.5 338L1129.69 350L1174.88 338L1220.06 350L1265.25 338L1310.44 350L1355.62 338L1400.81 350L1446 338" stroke="#69C390" stroke-width="3" stroke-linecap="round"></path> <path d="M1446 338L1491.19 350L1536.38 338L1581.56 350L1626.75 338L1671.94 350L1717.12 338L1762.31 350L1807.5 338L1852.69 350L1897.88 338L1943.06 350L1988.25 338L2033.44 350L2078.62 338L2123.81 350L2169 338L2214.19 350L2259.38 338L2304.56 350L2349.75 338L2394.94 350L2440.12 338L2485.31 350L2530.5 338L2575.69 350L2620.88 338L2666.06 350L2711.25 338L2756.44 350L2801.62 338L2846.81 350L2892 338" stroke="#69C390" stroke-width="3" stroke-linecap="round"></path> <path d="M0 194L45.1875 206L90.375 194L135.562 206L180.75 194L225.938 206L271.125 194L316.312 206L361.5 194L406.688 206L451.875 194L497.062 206L542.25 194L587.438 206L632.625 194L677.812 206L723 194L768.188 206L813.375 194L858.562 206L903.75 194L948.938 206L994.125 194L1039.31 206L1084.5 194L1129.69 206L1174.88 194L1220.06 206L1265.25 194L1310.44 206L1355.62 194L1400.81 206L1446 194" stroke="#69C390" stroke-width="3" stroke-linecap="round"></path> <path d="M1446 194L1491.19 206L1536.38 194L1581.56 206L1626.75 194L1671.94 206L1717.12 194L1762.31 206L1807.5 194L1852.69 206L1897.88 194L1943.06 206L1988.25 194L2033.44 206L2078.62 194L2123.81 206L2169 194L2214.19 206L2259.38 194L2304.56 206L2349.75 194L2394.94 206L2440.12 194L2485.31 206L2530.5 194L2575.69 206L2620.88 194L2666.06 206L2711.25 194L2756.44 206L2801.62 194L2846.81 206L2892 194" stroke="#69C390" stroke-width="3" stroke-linecap="round"></path> <path d="M0 354L45.1875 366L90.375 354L135.562 366L180.75 354L225.938 366L271.125 354L316.312 366L361.5 354L406.688 366L451.875 354L497.062 366L542.25 354L587.438 366L632.625 354L677.812 366L723 354L768.188 366L813.375 354L858.562 366L903.75 354L948.938 366L994.125 354L1039.31 366L1084.5 354L1129.69 366L1174.88 354L1220.06 366L1265.25 354L1310.44 366L1355.62 354L1400.81 366L1446 354" stroke="#69C390" stroke-width="3" stroke-linecap="round"></path> <path d="M1446 354L1491.19 366L1536.38 354L1581.56 366L1626.75 354L1671.94 366L1717.12 354L1762.31 366L1807.5 354L1852.69 366L1897.88 354L1943.06 366L1988.25 354L2033.44 366L2078.62 354L2123.81 366L2169 354L2214.19 366L2259.38 354L2304.56 366L2349.75 354L2394.94 366L2440.12 354L2485.31 366L2530.5 354L2575.69 366L2620.88 354L2666.06 366L2711.25 354L2756.44 366L2801.62 354L2846.81 366L2892 354" stroke="#69C390" stroke-width="3" stroke-linecap="round"></path> <path d="M0 210L45.1875 222L90.375 210L135.562 222L180.75 210L225.938 222L271.125 210L316.312 222L361.5 210L406.688 222L451.875 210L497.062 222L542.25 210L587.438 222L632.625 210L677.812 222L723 210L768.188 222L813.375 210L858.562 222L903.75 210L948.938 222L994.125 210L1039.31 222L1084.5 210L1129.69 222L1174.88 210L1220.06 222L1265.25 210L1310.44 222L1355.62 210L1400.81 222L1446 210" stroke="#69C390" stroke-width="3" stroke-linecap="round"></path> <path d="M1446 210L1491.19 222L1536.38 210L1581.56 222L1626.75 210L1671.94 222L1717.12 210L1762.31 222L1807.5 210L1852.69 222L1897.88 210L1943.06 222L1988.25 210L2033.44 222L2078.62 210L2123.81 222L2169 210L2214.19 222L2259.38 210L2304.56 222L2349.75 210L2394.94 222L2440.12 210L2485.31 222L2530.5 210L2575.69 222L2620.88 210L2666.06 222L2711.25 210L2756.44 222L2801.62 210L2846.81 222L2892 210" stroke="#69C390" stroke-width="3" stroke-linecap="round"></path> <path d="M0 370L45.1875 382L90.375 370L135.562 382L180.75 370L225.938 382L271.125 370L316.312 382L361.5 370L406.688 382L451.875 370L497.062 382L542.25 370L587.438 382L632.625 370L677.812 382L723 370L768.188 382L813.375 370L858.562 382L903.75 370L948.938 382L994.125 370L1039.31 382L1084.5 370L1129.69 382L1174.88 370L1220.06 382L1265.25 370L1310.44 382L1355.62 370L1400.81 382L1446 370" stroke="#69C390" stroke-width="3" stroke-linecap="round"></path> <path d="M1446 370L1491.19 382L1536.38 370L1581.56 382L1626.75 370L1671.94 382L1717.12 370L1762.31 382L1807.5 370L1852.69 382L1897.88 370L1943.06 382L1988.25 370L2033.44 382L2078.62 370L2123.81 382L2169 370L2214.19 382L2259.38 370L2304.56 382L2349.75 370L2394.94 382L2440.12 370L2485.31 382L2530.5 370L2575.69 382L2620.88 370L2666.06 382L2711.25 370L2756.44 382L2801.62 370L2846.81 382L2892 370" stroke="#69C390" stroke-width="3" stroke-linecap="round"></path> <path d="M0 226L45.1875 238L90.375 226L135.562 238L180.75 226L225.938 238L271.125 226L316.312 238L361.5 226L406.688 238L451.875 226L497.062 238L542.25 226L587.438 238L632.625 226L677.812 238L723 226L768.188 238L813.375 226L858.562 238L903.75 226L948.938 238L994.125 226L1039.31 238L1084.5 226L1129.69 238L1174.88 226L1220.06 238L1265.25 226L1310.44 238L1355.62 226L1400.81 238L1446 226" stroke="#69C390" stroke-width="3" stroke-linecap="round"></path> <path d="M1446 226L1491.19 238L1536.38 226L1581.56 238L1626.75 226L1671.94 238L1717.12 226L1762.31 238L1807.5 226L1852.69 238L1897.88 226L1943.06 238L1988.25 226L2033.44 238L2078.62 226L2123.81 238L2169 226L2214.19 238L2259.38 226L2304.56 238L2349.75 226L2394.94 238L2440.12 226L2485.31 238L2530.5 226L2575.69 238L2620.88 226L2666.06 238L2711.25 226L2756.44 238L2801.62 226L2846.81 238L2892 226" stroke="#69C390" stroke-width="3" stroke-linecap="round"></path> <path d="M0 386L45.1875 398L90.375 386L135.562 398L180.75 386L225.938 398L271.125 386L316.312 398L361.5 386L406.688 398L451.875 386L497.062 398L542.25 386L587.438 398L632.625 386L677.812 398L723 386L768.188 398L813.375 386L858.562 398L903.75 386L948.938 398L994.125 386L1039.31 398L1084.5 386L1129.69 398L1174.88 386L1220.06 398L1265.25 386L1310.44 398L1355.62 386L1400.81 398L1446 386" stroke="#69C390" stroke-width="3" stroke-linecap="round"></path> <path d="M1446 386L1491.19 398L1536.38 386L1581.56 398L1626.75 386L1671.94 398L1717.12 386L1762.31 398L1807.5 386L1852.69 398L1897.88 386L1943.06 398L1988.25 386L2033.44 398L2078.62 386L2123.81 398L2169 386L2214.19 398L2259.38 386L2304.56 398L2349.75 386L2394.94 398L2440.12 386L2485.31 398L2530.5 386L2575.69 398L2620.88 386L2666.06 398L2711.25 386L2756.44 398L2801.62 386L2846.81 398L2892 386" stroke="#69C390" stroke-width="3" stroke-linecap="round"></path> <path d="M0 242L45.1875 254L90.375 242L135.562 254L180.75 242L225.938 254L271.125 242L316.312 254L361.5 242L406.688 254L451.875 242L497.062 254L542.25 242L587.438 254L632.625 242L677.812 254L723 242L768.188 254L813.375 242L858.562 254L903.75 242L948.938 254L994.125 242L1039.31 254L1084.5 242L1129.69 254L1174.88 242L1220.06 254L1265.25 242L1310.44 254L1355.62 242L1400.81 254L1446 242" stroke="#69C390" stroke-width="3" stroke-linecap="round"></path> <path d="M1446 242L1491.19 254L1536.38 242L1581.56 254L1626.75 242L1671.94 254L1717.12 242L1762.31 254L1807.5 242L1852.69 254L1897.88 242L1943.06 254L1988.25 242L2033.44 254L2078.62 242L2123.81 254L2169 242L2214.19 254L2259.38 242L2304.56 254L2349.75 242L2394.94 254L2440.12 242L2485.31 254L2530.5 242L2575.69 254L2620.88 242L2666.06 254L2711.25 242L2756.44 254L2801.62 242L2846.81 254L2892 242" stroke="#69C390" stroke-width="3" stroke-linecap="round"></path> <path d="M0 402L45.1875 414L90.375 402L135.562 414L180.75 402L225.938 414L271.125 402L316.312 414L361.5 402L406.688 414L451.875 402L497.062 414L542.25 402L587.438 414L632.625 402L677.812 414L723 402L768.188 414L813.375 402L858.562 414L903.75 402L948.938 414L994.125 402L1039.31 414L1084.5 402L1129.69 414L1174.88 402L1220.06 414L1265.25 402L1310.44 414L1355.62 402L1400.81 414L1446 402" stroke="#69C390" stroke-width="3" stroke-linecap="round"></path> <path d="M1446 402L1491.19 414L1536.38 402L1581.56 414L1626.75 402L1671.94 414L1717.12 402L1762.31 414L1807.5 402L1852.69 414L1897.88 402L1943.06 414L1988.25 402L2033.44 414L2078.62 402L2123.81 414L2169 402L2214.19 414L2259.38 402L2304.56 414L2349.75 402L2394.94 414L2440.12 402L2485.31 414L2530.5 402L2575.69 414L2620.88 402L2666.06 414L2711.25 402L2756.44 414L2801.62 402L2846.81 414L2892 402" stroke="#69C390" stroke-width="3" stroke-linecap="round"></path> <path d="M0 258L45.1875 270L90.375 258L135.562 270L180.75 258L225.938 270L271.125 258L316.312 270L361.5 258L406.688 270L451.875 258L497.062 270L542.25 258L587.438 270L632.625 258L677.812 270L723 258L768.188 270L813.375 258L858.562 270L903.75 258L948.938 270L994.125 258L1039.31 270L1084.5 258L1129.69 270L1174.88 258L1220.06 270L1265.25 258L1310.44 270L1355.62 258L1400.81 270L1446 258" stroke="#69C390" stroke-width="3" stroke-linecap="round"></path> <path d="M1446 258L1491.19 270L1536.38 258L1581.56 270L1626.75 258L1671.94 270L1717.12 258L1762.31 270L1807.5 258L1852.69 270L1897.88 258L1943.06 270L1988.25 258L2033.44 270L2078.62 258L2123.81 270L2169 258L2214.19 270L2259.38 258L2304.56 270L2349.75 258L2394.94 270L2440.12 258L2485.31 270L2530.5 258L2575.69 270L2620.88 258L2666.06 270L2711.25 258L2756.44 270L2801.62 258L2846.81 270L2892 258" stroke="#69C390" stroke-width="3" stroke-linecap="round"></path> <path d="M0 418L45.1875 430L90.375 418L135.562 430L180.75 418L225.938 430L271.125 418L316.312 430L361.5 418L406.688 430L451.875 418L497.062 430L542.25 418L587.438 430L632.625 418L677.812 430L723 418L768.188 430L813.375 418L858.562 430L903.75 418L948.938 430L994.125 418L1039.31 430L1084.5 418L1129.69 430L1174.88 418L1220.06 430L1265.25 418L1310.44 430L1355.62 418L1400.81 430L1446 418" stroke="#69C390" stroke-width="3" stroke-linecap="round"></path> <path d="M1446 418L1491.19 430L1536.38 418L1581.56 430L1626.75 418L1671.94 430L1717.12 418L1762.31 430L1807.5 418L1852.69 430L1897.88 418L1943.06 430L1988.25 418L2033.44 430L2078.62 418L2123.81 430L2169 418L2214.19 430L2259.38 418L2304.56 430L2349.75 418L2394.94 430L2440.12 418L2485.31 430L2530.5 418L2575.69 430L2620.88 418L2666.06 430L2711.25 418L2756.44 430L2801.62 418L2846.81 430L2892 418" stroke="#69C390" stroke-width="3" stroke-linecap="round"></path> <path d="M0 274L45.1875 286L90.375 274L135.562 286L180.75 274L225.938 286L271.125 274L316.312 286L361.5 274L406.688 286L451.875 274L497.062 286L542.25 274L587.438 286L632.625 274L677.812 286L723 274L768.188 286L813.375 274L858.562 286L903.75 274L948.938 286L994.125 274L1039.31 286L1084.5 274L1129.69 286L1174.88 274L1220.06 286L1265.25 274L1310.44 286L1355.62 274L1400.81 286L1446 274" stroke="#69C390" stroke-width="3" stroke-linecap="round"></path> <path d="M1446 274L1491.19 286L1536.38 274L1581.56 286L1626.75 274L1671.94 286L1717.12 274L1762.31 286L1807.5 274L1852.69 286L1897.88 274L1943.06 286L1988.25 274L2033.44 286L2078.62 274L2123.81 286L2169 274L2214.19 286L2259.38 274L2304.56 286L2349.75 274L2394.94 286L2440.12 274L2485.31 286L2530.5 274L2575.69 286L2620.88 274L2666.06 286L2711.25 274L2756.44 286L2801.62 274L2846.81 286L2892 274" stroke="#69C390" stroke-width="3" stroke-linecap="round"></path> <path d="M0 434L45.1875 446L90.375 434L135.562 446L180.75 434L225.938 446L271.125 434L316.312 446L361.5 434L406.688 446L451.875 434L497.062 446L542.25 434L587.438 446L632.625 434L677.812 446L723 434L768.188 446L813.375 434L858.562 446L903.75 434L948.938 446L994.125 434L1039.31 446L1084.5 434L1129.69 446L1174.88 434L1220.06 446L1265.25 434L1310.44 446L1355.62 434L1400.81 446L1446 434" stroke="#69C390" stroke-width="3" stroke-linecap="round"></path> <path d="M1446 434L1491.19 446L1536.38 434L1581.56 446L1626.75 434L1671.94 446L1717.12 434L1762.31 446L1807.5 434L1852.69 446L1897.88 434L1943.06 446L1988.25 434L2033.44 446L2078.62 434L2123.81 446L2169 434L2214.19 446L2259.38 434L2304.56 446L2349.75 434L2394.94 446L2440.12 434L2485.31 446L2530.5 434L2575.69 446L2620.88 434L2666.06 446L2711.25 434L2756.44 446L2801.62 434L2846.81 446L2892 434" stroke="#69C390" stroke-width="3" stroke-linecap="round"></path> <path d="M0 290L45.1875 302L90.375 290L135.562 302L180.75 290L225.938 302L271.125 290L316.312 302L361.5 290L406.688 302L451.875 290L497.062 302L542.25 290L587.438 302L632.625 290L677.812 302L723 290L768.188 302L813.375 290L858.562 302L903.75 290L948.938 302L994.125 290L1039.31 302L1084.5 290L1129.69 302L1174.88 290L1220.06 302L1265.25 290L1310.44 302L1355.62 290L1400.81 302L1446 290" stroke="#69C390" stroke-width="3" stroke-linecap="round"></path> <path d="M1446 290L1491.19 302L1536.38 290L1581.56 302L1626.75 290L1671.94 302L1717.12 290L1762.31 302L1807.5 290L1852.69 302L1897.88 290L1943.06 302L1988.25 290L2033.44 302L2078.62 290L2123.81 302L2169 290L2214.19 302L2259.38 290L2304.56 302L2349.75 290L2394.94 302L2440.12 290L2485.31 302L2530.5 290L2575.69 302L2620.88 290L2666.06 302L2711.25 290L2756.44 302L2801.62 290L2846.81 302L2892 290" stroke="#69C390" stroke-width="3" stroke-linecap="round"></path> <path d="M0 450L45.1875 462L90.375 450L135.562 462L180.75 450L225.938 462L271.125 450L316.312 462L361.5 450L406.688 462L451.875 450L497.062 462L542.25 450L587.438 462L632.625 450L677.812 462L723 450L768.188 462L813.375 450L858.562 462L903.75 450L948.938 462L994.125 450L1039.31 462L1084.5 450L1129.69 462L1174.88 450L1220.06 462L1265.25 450L1310.44 462L1355.62 450L1400.81 462L1446 450" stroke="#69C390" stroke-width="3" stroke-linecap="round"></path> <path d="M1446 450L1491.19 462L1536.38 450L1581.56 462L1626.75 450L1671.94 462L1717.12 450L1762.31 462L1807.5 450L1852.69 462L1897.88 450L1943.06 462L1988.25 450L2033.44 462L2078.62 450L2123.81 462L2169 450L2214.19 462L2259.38 450L2304.56 462L2349.75 450L2394.94 462L2440.12 450L2485.31 462L2530.5 450L2575.69 462L2620.88 450L2666.06 462L2711.25 450L2756.44 462L2801.62 450L2846.81 462L2892 450" stroke="#69C390" stroke-width="3" stroke-linecap="round"></path> </g> <defs> <clipPath id="clip0"> <rect width="2900" height="464" fill="white"></rect> </clipPath> </defs> </svg> 