<?xml version="1.0" encoding="UTF-8"?> <svg xmlns="http://www.w3.org/2000/svg" width="545" height="543" viewBox="0 0 545 543" fill="none"> <circle cx="266.937" cy="266.937" r="187.366" stroke="#57AF7D" stroke-width="4"></circle> <path d="M544.67 233L313.97 240.755C309.546 240.903 305.643 243.689 304.064 247.823L283.465 301.743C281.158 307.782 284.531 314.499 290.753 316.255L535.84 385.424" stroke="#56CCF2" stroke-width="4"></path> <path d="M207.343 241.27H269.458C277.099 241.27 282.412 248.869 279.79 256.045L264.484 297.93C262.588 303.119 257.138 306.097 251.748 304.889L192.212 291.55C185.432 290.03 181.741 282.683 184.571 276.337L197.296 247.791C199.064 243.825 203 241.27 207.343 241.27Z" stroke="#56CCF2" stroke-width="4"></path> <line x1="184.217" y1="279.988" x2="15.3851" y2="298.241" stroke="#56CCF2" stroke-width="4"></line> <circle opacity="0.2" cx="423.221" cy="499.651" r="41.8487" stroke="#57AF7D" stroke-width="3"></circle> <circle opacity="0.6" cx="285.189" cy="151.721" r="25.3782" stroke="#57AF7D" stroke-width="4"></circle> <circle opacity="0.4" cx="507.636" cy="179.099" r="29.3004" stroke="#57AF7D" stroke-width="3"></circle> <circle opacity="0.3" cx="197.351" cy="18.2521" r="16.7521" stroke="#57AF7D" stroke-width="3"></circle> <circle opacity="0.6" cx="258.952" cy="388.998" r="18.5336" stroke="#57AF7D" stroke-width="4"></circle> <circle opacity="0.5" cx="18.2521" cy="184.802" r="16.7521" stroke="#57AF7D" stroke-width="3"></circle> </svg> 