<?xml version="1.0" encoding="UTF-8"?> <svg xmlns="http://www.w3.org/2000/svg" width="2900" height="334" viewBox="0 0 2900 334" fill="none"> <g clip-path="url(#clip0)"> <path d="M0 2L22.5937 8C37.3996 11.9319 52.9753 11.9319 67.7812 8C82.5872 4.06814 98.1628 4.06814 112.969 8C127.775 11.9319 143.35 11.9319 158.156 8C172.962 4.06814 188.538 4.06814 203.344 8C218.15 11.9319 233.725 11.9319 248.531 8C263.337 4.06814 278.913 4.06814 293.719 8C308.525 11.9319 324.1 11.9319 338.906 8C353.712 4.06814 369.288 4.06814 384.094 8C398.9 11.9319 414.475 11.9319 429.281 8C444.087 4.06814 459.663 4.06814 474.469 8C489.275 11.9319 504.85 11.9319 519.656 8C534.462 4.06814 550.038 4.06814 564.844 8C579.65 11.9319 595.225 11.9319 610.031 8C624.837 4.06814 640.413 4.06814 655.219 8C670.025 11.9319 685.6 11.9319 700.406 8C715.212 4.06814 730.788 4.06814 745.594 8C760.4 11.9319 775.975 11.9319 790.781 8C805.587 4.06814 821.163 4.06814 835.969 8C850.775 11.9319 866.35 11.9319 881.156 8C895.962 4.06814 911.538 4.06814 926.344 8C941.15 11.9319 956.725 11.9319 971.531 8C986.337 4.06814 1001.91 4.06814 1016.72 8C1031.52 11.9319 1047.1 11.9319 1061.91 8C1076.71 4.06814 1092.29 4.06814 1107.09 8C1121.9 11.9319 1137.48 11.9319 1152.28 8C1167.09 4.06814 1182.66 4.06814 1197.47 8C1212.27 11.9319 1227.85 11.9319 1242.66 8C1257.46 4.06814 1273.04 4.06814 1287.84 8C1302.65 11.9319 1318.23 11.9319 1333.03 8C1347.84 4.06814 1363.41 4.06814 1378.22 8C1393.02 11.9319 1408.6 11.9319 1423.41 8V8C1438.21 4.06814 1453.79 4.06814 1468.59 8V8C1483.4 11.9319 1498.98 11.9319 1513.78 8C1528.59 4.06814 1544.16 4.06814 1558.97 8C1573.77 11.9319 1589.35 11.9319 1604.16 8C1618.96 4.06814 1634.54 4.06814 1649.34 8C1664.15 11.9319 1679.73 11.9319 1694.53 8C1709.34 4.06814 1724.91 4.06814 1739.72 8C1754.52 11.9319 1770.1 11.9319 1784.91 8C1799.71 4.06814 1815.29 4.06814 1830.09 8C1844.9 11.9319 1860.48 11.9319 1875.28 8C1890.09 4.06814 1905.66 4.06814 1920.47 8C1935.27 11.9319 1950.85 11.9319 1965.66 8C1980.46 4.06814 1996.04 4.06814 2010.84 8C2025.65 11.9319 2041.23 11.9319 2056.03 8C2070.84 4.06814 2086.41 4.06814 2101.22 8C2116.02 11.9319 2131.6 11.9319 2146.41 8C2161.21 4.06814 2176.79 4.06814 2191.59 8C2206.4 11.9319 2221.98 11.9319 2236.78 8C2251.59 4.06814 2267.16 4.06814 2281.97 8C2296.77 11.9319 2312.35 11.9319 2327.16 8C2341.96 4.06814 2357.54 4.06814 2372.34 8C2387.15 11.9319 2402.73 11.9319 2417.53 8C2432.34 4.06814 2447.91 4.06814 2462.72 8C2477.52 11.9319 2493.1 11.9319 2507.91 8C2522.71 4.06814 2538.29 4.06814 2553.09 8C2567.9 11.9319 2583.48 11.9319 2598.28 8C2613.09 4.06814 2628.66 4.06814 2643.47 8C2658.27 11.9319 2673.85 11.9319 2688.66 8C2703.46 4.06814 2719.04 4.06814 2733.84 8C2748.65 11.9319 2764.23 11.9319 2779.03 8C2793.84 4.06814 2809.41 4.06814 2824.22 8C2839.02 11.9319 2854.6 11.9319 2869.41 8L2892 2" stroke="#56CCF2" stroke-opacity="0.4" stroke-width="3"></path> <path d="M0 29.8975L22.5937 35.8975C37.3996 39.8293 52.9753 39.8293 67.7812 35.8975C82.5872 31.9656 98.1628 31.9656 112.969 35.8975C127.775 39.8293 143.35 39.8293 158.156 35.8975C172.962 31.9656 188.538 31.9656 203.344 35.8975C218.15 39.8293 233.725 39.8293 248.531 35.8975C263.337 31.9656 278.913 31.9656 293.719 35.8975C308.525 39.8293 324.1 39.8293 338.906 35.8975C353.712 31.9656 369.288 31.9656 384.094 35.8975C398.9 39.8293 414.475 39.8293 429.281 35.8975C444.087 31.9656 459.663 31.9656 474.469 35.8975C489.275 39.8293 504.85 39.8293 519.656 35.8975C534.462 31.9656 550.038 31.9656 564.844 35.8975C579.65 39.8293 595.225 39.8293 610.031 35.8975C624.837 31.9656 640.413 31.9656 655.219 35.8975C670.025 39.8293 685.6 39.8293 700.406 35.8975C715.212 31.9656 730.788 31.9656 745.594 35.8975C760.4 39.8293 775.975 39.8293 790.781 35.8975C805.587 31.9656 821.163 31.9656 835.969 35.8975C850.775 39.8293 866.35 39.8293 881.156 35.8975C895.962 31.9656 911.538 31.9656 926.344 35.8975C941.15 39.8293 956.725 39.8293 971.531 35.8975C986.337 31.9656 1001.91 31.9656 1016.72 35.8975C1031.52 39.8293 1047.1 39.8293 1061.91 35.8975C1076.71 31.9656 1092.29 31.9656 1107.09 35.8975C1121.9 39.8293 1137.48 39.8293 1152.28 35.8975C1167.09 31.9656 1182.66 31.9656 1197.47 35.8975C1212.27 39.8293 1227.85 39.8293 1242.66 35.8975C1257.46 31.9656 1273.04 31.9656 1287.84 35.8975C1302.65 39.8293 1318.23 39.8293 1333.03 35.8975C1347.84 31.9656 1363.41 31.9656 1378.22 35.8975C1393.02 39.8293 1408.6 39.8293 1423.41 35.8975V35.8975C1438.21 31.9656 1453.79 31.9656 1468.59 35.8975V35.8975C1483.4 39.8293 1498.98 39.8293 1513.78 35.8975C1528.59 31.9656 1544.16 31.9656 1558.97 35.8975C1573.77 39.8293 1589.35 39.8293 1604.16 35.8975C1618.96 31.9656 1634.54 31.9656 1649.34 35.8975C1664.15 39.8293 1679.73 39.8293 1694.53 35.8975C1709.34 31.9656 1724.91 31.9656 1739.72 35.8975C1754.52 39.8293 1770.1 39.8293 1784.91 35.8975C1799.71 31.9656 1815.29 31.9656 1830.09 35.8975C1844.9 39.8293 1860.48 39.8293 1875.28 35.8975C1890.09 31.9656 1905.66 31.9656 1920.47 35.8975C1935.27 39.8293 1950.85 39.8293 1965.66 35.8975C1980.46 31.9656 1996.04 31.9656 2010.84 35.8975C2025.65 39.8293 2041.23 39.8293 2056.03 35.8975C2070.84 31.9656 2086.41 31.9656 2101.22 35.8975C2116.02 39.8293 2131.6 39.8293 2146.41 35.8975C2161.21 31.9656 2176.79 31.9656 2191.59 35.8975C2206.4 39.8293 2221.98 39.8293 2236.78 35.8975C2251.59 31.9656 2267.16 31.9656 2281.97 35.8975C2296.77 39.8293 2312.35 39.8293 2327.16 35.8975C2341.96 31.9656 2357.54 31.9656 2372.34 35.8975C2387.15 39.8293 2402.73 39.8293 2417.53 35.8975C2432.34 31.9656 2447.91 31.9656 2462.72 35.8975C2477.52 39.8293 2493.1 39.8293 2507.91 35.8975C2522.71 31.9656 2538.29 31.9656 2553.09 35.8975C2567.9 39.8293 2583.48 39.8293 2598.28 35.8975C2613.09 31.9656 2628.66 31.9656 2643.47 35.8975C2658.27 39.8293 2673.85 39.8293 2688.66 35.8975C2703.46 31.9656 2719.04 31.9656 2733.84 35.8975C2748.65 39.8293 2764.23 39.8293 2779.03 35.8975C2793.84 31.9656 2809.41 31.9656 2824.22 35.8975C2839.02 39.8293 2854.6 39.8293 2869.41 35.8975L2892 29.8975" stroke="#56CCF2" stroke-opacity="0.4" stroke-width="3"></path> <path d="M0 57.7949L22.5937 63.7949C37.3996 67.7268 52.9753 67.7268 67.7812 63.7949C82.5872 59.8631 98.1628 59.8631 112.969 63.7949C127.775 67.7268 143.35 67.7268 158.156 63.7949C172.962 59.8631 188.538 59.8631 203.344 63.7949C218.15 67.7268 233.725 67.7268 248.531 63.7949C263.337 59.8631 278.913 59.8631 293.719 63.7949C308.525 67.7268 324.1 67.7268 338.906 63.7949C353.712 59.8631 369.288 59.8631 384.094 63.7949C398.9 67.7268 414.475 67.7268 429.281 63.7949C444.087 59.8631 459.663 59.8631 474.469 63.7949C489.275 67.7268 504.85 67.7268 519.656 63.7949C534.462 59.8631 550.038 59.8631 564.844 63.7949C579.65 67.7268 595.225 67.7268 610.031 63.7949C624.837 59.8631 640.413 59.8631 655.219 63.7949C670.025 67.7268 685.6 67.7268 700.406 63.7949C715.212 59.8631 730.788 59.8631 745.594 63.7949C760.4 67.7268 775.975 67.7268 790.781 63.7949C805.587 59.8631 821.163 59.8631 835.969 63.7949C850.775 67.7268 866.35 67.7268 881.156 63.7949C895.962 59.8631 911.538 59.8631 926.344 63.7949C941.15 67.7268 956.725 67.7268 971.531 63.7949C986.337 59.8631 1001.91 59.8631 1016.72 63.7949C1031.52 67.7268 1047.1 67.7268 1061.91 63.7949C1076.71 59.8631 1092.29 59.8631 1107.09 63.7949C1121.9 67.7268 1137.48 67.7268 1152.28 63.7949C1167.09 59.8631 1182.66 59.8631 1197.47 63.7949C1212.27 67.7268 1227.85 67.7268 1242.66 63.7949C1257.46 59.8631 1273.04 59.8631 1287.84 63.7949C1302.65 67.7268 1318.23 67.7268 1333.03 63.7949C1347.84 59.8631 1363.41 59.8631 1378.22 63.7949C1393.02 67.7268 1408.6 67.7268 1423.41 63.7949V63.7949C1438.21 59.8631 1453.79 59.8631 1468.59 63.7949V63.7949C1483.4 67.7268 1498.98 67.7268 1513.78 63.7949C1528.59 59.8631 1544.16 59.8631 1558.97 63.7949C1573.77 67.7268 1589.35 67.7268 1604.16 63.7949C1618.96 59.8631 1634.54 59.8631 1649.34 63.7949C1664.15 67.7268 1679.73 67.7268 1694.53 63.7949C1709.34 59.8631 1724.91 59.8631 1739.72 63.7949C1754.52 67.7268 1770.1 67.7268 1784.91 63.7949C1799.71 59.8631 1815.29 59.8631 1830.09 63.7949C1844.9 67.7268 1860.48 67.7268 1875.28 63.7949C1890.09 59.8631 1905.66 59.8631 1920.47 63.7949C1935.27 67.7268 1950.85 67.7268 1965.66 63.7949C1980.46 59.8631 1996.04 59.8631 2010.84 63.7949C2025.65 67.7268 2041.23 67.7268 2056.03 63.7949C2070.84 59.8631 2086.41 59.8631 2101.22 63.7949C2116.02 67.7268 2131.6 67.7268 2146.41 63.7949C2161.21 59.8631 2176.79 59.8631 2191.59 63.7949C2206.4 67.7268 2221.98 67.7268 2236.78 63.7949C2251.59 59.8631 2267.16 59.8631 2281.97 63.7949C2296.77 67.7268 2312.35 67.7268 2327.16 63.7949C2341.96 59.8631 2357.54 59.8631 2372.34 63.7949C2387.15 67.7268 2402.73 67.7268 2417.53 63.7949C2432.34 59.8631 2447.91 59.8631 2462.72 63.7949C2477.52 67.7268 2493.1 67.7268 2507.91 63.7949C2522.71 59.8631 2538.29 59.8631 2553.09 63.7949C2567.9 67.7268 2583.48 67.7268 2598.28 63.7949C2613.09 59.8631 2628.66 59.8631 2643.47 63.7949C2658.27 67.7268 2673.85 67.7268 2688.66 63.7949C2703.46 59.8631 2719.04 59.8631 2733.84 63.7949C2748.65 67.7268 2764.23 67.7268 2779.03 63.7949C2793.84 59.8631 2809.41 59.8631 2824.22 63.7949C2839.02 67.7268 2854.6 67.7268 2869.41 63.7949L2892 57.7949" stroke="#56CCF2" stroke-opacity="0.4" stroke-width="3"></path> <path d="M0 85.6924L22.5937 91.6924C37.3996 95.6242 52.9753 95.6242 67.7812 91.6924C82.5872 87.7605 98.1628 87.7605 112.969 91.6924C127.775 95.6242 143.35 95.6242 158.156 91.6924C172.962 87.7605 188.538 87.7605 203.344 91.6924C218.15 95.6242 233.725 95.6242 248.531 91.6924C263.337 87.7605 278.913 87.7605 293.719 91.6924C308.525 95.6242 324.1 95.6242 338.906 91.6924C353.712 87.7605 369.288 87.7605 384.094 91.6924C398.9 95.6242 414.475 95.6242 429.281 91.6924C444.087 87.7605 459.663 87.7605 474.469 91.6924C489.275 95.6242 504.85 95.6242 519.656 91.6924C534.462 87.7605 550.038 87.7605 564.844 91.6924C579.65 95.6242 595.225 95.6242 610.031 91.6924C624.837 87.7605 640.413 87.7605 655.219 91.6924C670.025 95.6242 685.6 95.6242 700.406 91.6924C715.212 87.7605 730.788 87.7605 745.594 91.6924C760.4 95.6242 775.975 95.6242 790.781 91.6924C805.587 87.7605 821.163 87.7605 835.969 91.6924C850.775 95.6242 866.35 95.6242 881.156 91.6924C895.962 87.7605 911.538 87.7605 926.344 91.6924C941.15 95.6242 956.725 95.6242 971.531 91.6924C986.337 87.7605 1001.91 87.7605 1016.72 91.6924C1031.52 95.6242 1047.1 95.6242 1061.91 91.6924C1076.71 87.7605 1092.29 87.7605 1107.09 91.6924C1121.9 95.6242 1137.48 95.6242 1152.28 91.6924C1167.09 87.7605 1182.66 87.7605 1197.47 91.6924C1212.27 95.6242 1227.85 95.6242 1242.66 91.6924C1257.46 87.7605 1273.04 87.7605 1287.84 91.6924C1302.65 95.6242 1318.23 95.6242 1333.03 91.6924C1347.84 87.7605 1363.41 87.7605 1378.22 91.6924C1393.02 95.6242 1408.6 95.6242 1423.41 91.6924V91.6924C1438.21 87.7605 1453.79 87.7605 1468.59 91.6924V91.6924C1483.4 95.6242 1498.98 95.6242 1513.78 91.6924C1528.59 87.7605 1544.16 87.7605 1558.97 91.6924C1573.77 95.6242 1589.35 95.6242 1604.16 91.6924C1618.96 87.7605 1634.54 87.7605 1649.34 91.6924C1664.15 95.6242 1679.73 95.6242 1694.53 91.6924C1709.34 87.7605 1724.91 87.7605 1739.72 91.6924C1754.52 95.6242 1770.1 95.6242 1784.91 91.6924C1799.71 87.7605 1815.29 87.7605 1830.09 91.6924C1844.9 95.6242 1860.48 95.6242 1875.28 91.6924C1890.09 87.7605 1905.66 87.7605 1920.47 91.6924C1935.27 95.6242 1950.85 95.6242 1965.66 91.6924C1980.46 87.7605 1996.04 87.7605 2010.84 91.6924C2025.65 95.6242 2041.23 95.6242 2056.03 91.6924C2070.84 87.7605 2086.41 87.7605 2101.22 91.6924C2116.02 95.6242 2131.6 95.6242 2146.41 91.6924C2161.21 87.7605 2176.79 87.7605 2191.59 91.6924C2206.4 95.6242 2221.98 95.6242 2236.78 91.6924C2251.59 87.7605 2267.16 87.7605 2281.97 91.6924C2296.77 95.6242 2312.35 95.6242 2327.16 91.6924C2341.96 87.7605 2357.54 87.7605 2372.34 91.6924C2387.15 95.6242 2402.73 95.6242 2417.53 91.6924C2432.34 87.7605 2447.91 87.7605 2462.72 91.6924C2477.52 95.6242 2493.1 95.6242 2507.91 91.6924C2522.71 87.7605 2538.29 87.7605 2553.09 91.6924C2567.9 95.6242 2583.48 95.6242 2598.28 91.6924C2613.09 87.7605 2628.66 87.7605 2643.47 91.6924C2658.27 95.6242 2673.85 95.6242 2688.66 91.6924C2703.46 87.7605 2719.04 87.7605 2733.84 91.6924C2748.65 95.6242 2764.23 95.6242 2779.03 91.6924C2793.84 87.7605 2809.41 87.7605 2824.22 91.6924C2839.02 95.6242 2854.6 95.6242 2869.41 91.6924L2892 85.6924" stroke="#56CCF2" stroke-opacity="0.4" stroke-width="3"></path> <path d="M0 113.59L22.5937 119.59C37.3996 123.522 52.9753 123.522 67.7812 119.59C82.5872 115.658 98.1628 115.658 112.969 119.59C127.775 123.522 143.35 123.522 158.156 119.59C172.962 115.658 188.538 115.658 203.344 119.59C218.15 123.522 233.725 123.522 248.531 119.59C263.337 115.658 278.913 115.658 293.719 119.59C308.525 123.522 324.1 123.522 338.906 119.59C353.712 115.658 369.288 115.658 384.094 119.59C398.9 123.522 414.475 123.522 429.281 119.59C444.087 115.658 459.663 115.658 474.469 119.59C489.275 123.522 504.85 123.522 519.656 119.59C534.462 115.658 550.038 115.658 564.844 119.59C579.65 123.522 595.225 123.522 610.031 119.59C624.837 115.658 640.413 115.658 655.219 119.59C670.025 123.522 685.6 123.522 700.406 119.59C715.212 115.658 730.788 115.658 745.594 119.59C760.4 123.522 775.975 123.522 790.781 119.59C805.587 115.658 821.163 115.658 835.969 119.59C850.775 123.522 866.35 123.522 881.156 119.59C895.962 115.658 911.538 115.658 926.344 119.59C941.15 123.522 956.725 123.522 971.531 119.59C986.337 115.658 1001.91 115.658 1016.72 119.59C1031.52 123.522 1047.1 123.522 1061.91 119.59C1076.71 115.658 1092.29 115.658 1107.09 119.59C1121.9 123.522 1137.48 123.522 1152.28 119.59C1167.09 115.658 1182.66 115.658 1197.47 119.59C1212.27 123.522 1227.85 123.522 1242.66 119.59C1257.46 115.658 1273.04 115.658 1287.84 119.59C1302.65 123.522 1318.23 123.522 1333.03 119.59C1347.84 115.658 1363.41 115.658 1378.22 119.59C1393.02 123.522 1408.6 123.522 1423.41 119.59V119.59C1438.21 115.658 1453.79 115.658 1468.59 119.59V119.59C1483.4 123.522 1498.98 123.522 1513.78 119.59C1528.59 115.658 1544.16 115.658 1558.97 119.59C1573.77 123.522 1589.35 123.522 1604.16 119.59C1618.96 115.658 1634.54 115.658 1649.34 119.59C1664.15 123.522 1679.73 123.522 1694.53 119.59C1709.34 115.658 1724.91 115.658 1739.72 119.59C1754.52 123.522 1770.1 123.522 1784.91 119.59C1799.71 115.658 1815.29 115.658 1830.09 119.59C1844.9 123.522 1860.48 123.522 1875.28 119.59C1890.09 115.658 1905.66 115.658 1920.47 119.59C1935.27 123.522 1950.85 123.522 1965.66 119.59C1980.46 115.658 1996.04 115.658 2010.84 119.59C2025.65 123.522 2041.23 123.522 2056.03 119.59C2070.84 115.658 2086.41 115.658 2101.22 119.59C2116.02 123.522 2131.6 123.522 2146.41 119.59C2161.21 115.658 2176.79 115.658 2191.59 119.59C2206.4 123.522 2221.98 123.522 2236.78 119.59C2251.59 115.658 2267.16 115.658 2281.97 119.59C2296.77 123.522 2312.35 123.522 2327.16 119.59C2341.96 115.658 2357.54 115.658 2372.34 119.59C2387.15 123.522 2402.73 123.522 2417.53 119.59C2432.34 115.658 2447.91 115.658 2462.72 119.59C2477.52 123.522 2493.1 123.522 2507.91 119.59C2522.71 115.658 2538.29 115.658 2553.09 119.59C2567.9 123.522 2583.48 123.522 2598.28 119.59C2613.09 115.658 2628.66 115.658 2643.47 119.59C2658.27 123.522 2673.85 123.522 2688.66 119.59C2703.46 115.658 2719.04 115.658 2733.84 119.59C2748.65 123.522 2764.23 123.522 2779.03 119.59C2793.84 115.658 2809.41 115.658 2824.22 119.59C2839.02 123.522 2854.6 123.522 2869.41 119.59L2892 113.59" stroke="#56CCF2" stroke-opacity="0.4" stroke-width="3"></path> <path d="M0 141.487L22.5937 147.487C37.3996 151.419 52.9753 151.419 67.7812 147.487C82.5872 143.555 98.1628 143.555 112.969 147.487C127.775 151.419 143.35 151.419 158.156 147.487C172.962 143.555 188.538 143.555 203.344 147.487C218.15 151.419 233.725 151.419 248.531 147.487C263.337 143.555 278.913 143.555 293.719 147.487C308.525 151.419 324.1 151.419 338.906 147.487C353.712 143.555 369.288 143.555 384.094 147.487C398.9 151.419 414.475 151.419 429.281 147.487C444.087 143.555 459.663 143.555 474.469 147.487C489.275 151.419 504.85 151.419 519.656 147.487C534.462 143.555 550.038 143.555 564.844 147.487C579.65 151.419 595.225 151.419 610.031 147.487C624.837 143.555 640.413 143.555 655.219 147.487C670.025 151.419 685.6 151.419 700.406 147.487C715.212 143.555 730.788 143.555 745.594 147.487C760.4 151.419 775.975 151.419 790.781 147.487C805.587 143.555 821.163 143.555 835.969 147.487C850.775 151.419 866.35 151.419 881.156 147.487C895.962 143.555 911.538 143.555 926.344 147.487C941.15 151.419 956.725 151.419 971.531 147.487C986.337 143.555 1001.91 143.555 1016.72 147.487C1031.52 151.419 1047.1 151.419 1061.91 147.487C1076.71 143.555 1092.29 143.555 1107.09 147.487C1121.9 151.419 1137.48 151.419 1152.28 147.487C1167.09 143.555 1182.66 143.555 1197.47 147.487C1212.27 151.419 1227.85 151.419 1242.66 147.487C1257.46 143.555 1273.04 143.555 1287.84 147.487C1302.65 151.419 1318.23 151.419 1333.03 147.487C1347.84 143.555 1363.41 143.555 1378.22 147.487C1393.02 151.419 1408.6 151.419 1423.41 147.487V147.487C1438.21 143.555 1453.79 143.555 1468.59 147.487V147.487C1483.4 151.419 1498.98 151.419 1513.78 147.487C1528.59 143.555 1544.16 143.555 1558.97 147.487C1573.77 151.419 1589.35 151.419 1604.16 147.487C1618.96 143.555 1634.54 143.555 1649.34 147.487C1664.15 151.419 1679.73 151.419 1694.53 147.487C1709.34 143.555 1724.91 143.555 1739.72 147.487C1754.52 151.419 1770.1 151.419 1784.91 147.487C1799.71 143.555 1815.29 143.555 1830.09 147.487C1844.9 151.419 1860.48 151.419 1875.28 147.487C1890.09 143.555 1905.66 143.555 1920.47 147.487C1935.27 151.419 1950.85 151.419 1965.66 147.487C1980.46 143.555 1996.04 143.555 2010.84 147.487C2025.65 151.419 2041.23 151.419 2056.03 147.487C2070.84 143.555 2086.41 143.555 2101.22 147.487C2116.02 151.419 2131.6 151.419 2146.41 147.487C2161.21 143.555 2176.79 143.555 2191.59 147.487C2206.4 151.419 2221.98 151.419 2236.78 147.487C2251.59 143.555 2267.16 143.555 2281.97 147.487C2296.77 151.419 2312.35 151.419 2327.16 147.487C2341.96 143.555 2357.54 143.555 2372.34 147.487C2387.15 151.419 2402.73 151.419 2417.53 147.487C2432.34 143.555 2447.91 143.555 2462.72 147.487C2477.52 151.419 2493.1 151.419 2507.91 147.487C2522.71 143.555 2538.29 143.555 2553.09 147.487C2567.9 151.419 2583.48 151.419 2598.28 147.487C2613.09 143.555 2628.66 143.555 2643.47 147.487C2658.27 151.419 2673.85 151.419 2688.66 147.487C2703.46 143.555 2719.04 143.555 2733.84 147.487C2748.65 151.419 2764.23 151.419 2779.03 147.487C2793.84 143.555 2809.41 143.555 2824.22 147.487C2839.02 151.419 2854.6 151.419 2869.41 147.487L2892 141.487" stroke="#56CCF2" stroke-opacity="0.4" stroke-width="3"></path> <path d="M0 169.385L22.5937 175.385C37.3996 179.317 52.9753 179.317 67.7812 175.385C82.5872 171.453 98.1628 171.453 112.969 175.385C127.775 179.317 143.35 179.317 158.156 175.385C172.962 171.453 188.538 171.453 203.344 175.385C218.15 179.317 233.725 179.317 248.531 175.385C263.337 171.453 278.913 171.453 293.719 175.385C308.525 179.317 324.1 179.317 338.906 175.385C353.712 171.453 369.288 171.453 384.094 175.385C398.9 179.317 414.475 179.317 429.281 175.385C444.087 171.453 459.663 171.453 474.469 175.385C489.275 179.317 504.85 179.317 519.656 175.385C534.462 171.453 550.038 171.453 564.844 175.385C579.65 179.317 595.225 179.317 610.031 175.385C624.837 171.453 640.413 171.453 655.219 175.385C670.025 179.317 685.6 179.317 700.406 175.385C715.212 171.453 730.788 171.453 745.594 175.385C760.4 179.317 775.975 179.317 790.781 175.385C805.587 171.453 821.163 171.453 835.969 175.385C850.775 179.317 866.35 179.317 881.156 175.385C895.962 171.453 911.538 171.453 926.344 175.385C941.15 179.317 956.725 179.317 971.531 175.385C986.337 171.453 1001.91 171.453 1016.72 175.385C1031.52 179.317 1047.1 179.317 1061.91 175.385C1076.71 171.453 1092.29 171.453 1107.09 175.385C1121.9 179.317 1137.48 179.317 1152.28 175.385C1167.09 171.453 1182.66 171.453 1197.47 175.385C1212.27 179.317 1227.85 179.317 1242.66 175.385C1257.46 171.453 1273.04 171.453 1287.84 175.385C1302.65 179.317 1318.23 179.317 1333.03 175.385C1347.84 171.453 1363.41 171.453 1378.22 175.385C1393.02 179.317 1408.6 179.317 1423.41 175.385V175.385C1438.21 171.453 1453.79 171.453 1468.59 175.385V175.385C1483.4 179.317 1498.98 179.317 1513.78 175.385C1528.59 171.453 1544.16 171.453 1558.97 175.385C1573.77 179.317 1589.35 179.317 1604.16 175.385C1618.96 171.453 1634.54 171.453 1649.34 175.385C1664.15 179.317 1679.73 179.317 1694.53 175.385C1709.34 171.453 1724.91 171.453 1739.72 175.385C1754.52 179.317 1770.1 179.317 1784.91 175.385C1799.71 171.453 1815.29 171.453 1830.09 175.385C1844.9 179.317 1860.48 179.317 1875.28 175.385C1890.09 171.453 1905.66 171.453 1920.47 175.385C1935.27 179.317 1950.85 179.317 1965.66 175.385C1980.46 171.453 1996.04 171.453 2010.84 175.385C2025.65 179.317 2041.23 179.317 2056.03 175.385C2070.84 171.453 2086.41 171.453 2101.22 175.385C2116.02 179.317 2131.6 179.317 2146.41 175.385C2161.21 171.453 2176.79 171.453 2191.59 175.385C2206.4 179.317 2221.98 179.317 2236.78 175.385C2251.59 171.453 2267.16 171.453 2281.97 175.385C2296.77 179.317 2312.35 179.317 2327.16 175.385C2341.96 171.453 2357.54 171.453 2372.34 175.385C2387.15 179.317 2402.73 179.317 2417.53 175.385C2432.34 171.453 2447.91 171.453 2462.72 175.385C2477.52 179.317 2493.1 179.317 2507.91 175.385C2522.71 171.453 2538.29 171.453 2553.09 175.385C2567.9 179.317 2583.48 179.317 2598.28 175.385C2613.09 171.453 2628.66 171.453 2643.47 175.385C2658.27 179.317 2673.85 179.317 2688.66 175.385C2703.46 171.453 2719.04 171.453 2733.84 175.385C2748.65 179.317 2764.23 179.317 2779.03 175.385C2793.84 171.453 2809.41 171.453 2824.22 175.385C2839.02 179.317 2854.6 179.317 2869.41 175.385L2892 169.385" stroke="#56CCF2" stroke-opacity="0.4" stroke-width="3"></path> <path d="M0 197.282L22.5937 203.282C37.3996 207.214 52.9753 207.214 67.7812 203.282C82.5872 199.35 98.1628 199.35 112.969 203.282C127.775 207.214 143.35 207.214 158.156 203.282C172.962 199.35 188.538 199.35 203.344 203.282C218.15 207.214 233.725 207.214 248.531 203.282C263.337 199.35 278.913 199.35 293.719 203.282C308.525 207.214 324.1 207.214 338.906 203.282C353.712 199.35 369.288 199.35 384.094 203.282C398.9 207.214 414.475 207.214 429.281 203.282C444.087 199.35 459.663 199.35 474.469 203.282C489.275 207.214 504.85 207.214 519.656 203.282C534.462 199.35 550.038 199.35 564.844 203.282C579.65 207.214 595.225 207.214 610.031 203.282C624.837 199.35 640.413 199.35 655.219 203.282C670.025 207.214 685.6 207.214 700.406 203.282C715.212 199.35 730.788 199.35 745.594 203.282C760.4 207.214 775.975 207.214 790.781 203.282C805.587 199.35 821.163 199.35 835.969 203.282C850.775 207.214 866.35 207.214 881.156 203.282C895.962 199.35 911.538 199.35 926.344 203.282C941.15 207.214 956.725 207.214 971.531 203.282C986.337 199.35 1001.91 199.35 1016.72 203.282C1031.52 207.214 1047.1 207.214 1061.91 203.282C1076.71 199.35 1092.29 199.35 1107.09 203.282C1121.9 207.214 1137.48 207.214 1152.28 203.282C1167.09 199.35 1182.66 199.35 1197.47 203.282C1212.27 207.214 1227.85 207.214 1242.66 203.282C1257.46 199.35 1273.04 199.35 1287.84 203.282C1302.65 207.214 1318.23 207.214 1333.03 203.282C1347.84 199.35 1363.41 199.35 1378.22 203.282C1393.02 207.214 1408.6 207.214 1423.41 203.282V203.282C1438.21 199.35 1453.79 199.35 1468.59 203.282V203.282C1483.4 207.214 1498.98 207.214 1513.78 203.282C1528.59 199.35 1544.16 199.35 1558.97 203.282C1573.77 207.214 1589.35 207.214 1604.16 203.282C1618.96 199.35 1634.54 199.35 1649.34 203.282C1664.15 207.214 1679.73 207.214 1694.53 203.282C1709.34 199.35 1724.91 199.35 1739.72 203.282C1754.52 207.214 1770.1 207.214 1784.91 203.282C1799.71 199.35 1815.29 199.35 1830.09 203.282C1844.9 207.214 1860.48 207.214 1875.28 203.282C1890.09 199.35 1905.66 199.35 1920.47 203.282C1935.27 207.214 1950.85 207.214 1965.66 203.282C1980.46 199.35 1996.04 199.35 2010.84 203.282C2025.65 207.214 2041.23 207.214 2056.03 203.282C2070.84 199.35 2086.41 199.35 2101.22 203.282C2116.02 207.214 2131.6 207.214 2146.41 203.282C2161.21 199.35 2176.79 199.35 2191.59 203.282C2206.4 207.214 2221.98 207.214 2236.78 203.282C2251.59 199.35 2267.16 199.35 2281.97 203.282C2296.77 207.214 2312.35 207.214 2327.16 203.282C2341.96 199.35 2357.54 199.35 2372.34 203.282C2387.15 207.214 2402.73 207.214 2417.53 203.282C2432.34 199.35 2447.91 199.35 2462.72 203.282C2477.52 207.214 2493.1 207.214 2507.91 203.282C2522.71 199.35 2538.29 199.35 2553.09 203.282C2567.9 207.214 2583.48 207.214 2598.28 203.282C2613.09 199.35 2628.66 199.35 2643.47 203.282C2658.27 207.214 2673.85 207.214 2688.66 203.282C2703.46 199.35 2719.04 199.35 2733.84 203.282C2748.65 207.214 2764.23 207.214 2779.03 203.282C2793.84 199.35 2809.41 199.35 2824.22 203.282C2839.02 207.214 2854.6 207.214 2869.41 203.282L2892 197.282" stroke="#56CCF2" stroke-opacity="0.4" stroke-width="3"></path> <path d="M0 225.18L22.5937 231.18C37.3996 235.112 52.9753 235.112 67.7812 231.18C82.5872 227.248 98.1628 227.248 112.969 231.18C127.775 235.112 143.35 235.112 158.156 231.18C172.962 227.248 188.538 227.248 203.344 231.18C218.15 235.112 233.725 235.112 248.531 231.18C263.337 227.248 278.913 227.248 293.719 231.18C308.525 235.112 324.1 235.112 338.906 231.18C353.712 227.248 369.288 227.248 384.094 231.18C398.9 235.112 414.475 235.112 429.281 231.18C444.087 227.248 459.663 227.248 474.469 231.18C489.275 235.112 504.85 235.112 519.656 231.18C534.462 227.248 550.038 227.248 564.844 231.18C579.65 235.112 595.225 235.112 610.031 231.18C624.837 227.248 640.413 227.248 655.219 231.18C670.025 235.112 685.6 235.112 700.406 231.18C715.212 227.248 730.788 227.248 745.594 231.18C760.4 235.112 775.975 235.112 790.781 231.18C805.587 227.248 821.163 227.248 835.969 231.18C850.775 235.112 866.35 235.112 881.156 231.18C895.962 227.248 911.538 227.248 926.344 231.18C941.15 235.112 956.725 235.112 971.531 231.18C986.337 227.248 1001.91 227.248 1016.72 231.18C1031.52 235.112 1047.1 235.112 1061.91 231.18C1076.71 227.248 1092.29 227.248 1107.09 231.18C1121.9 235.112 1137.48 235.112 1152.28 231.18C1167.09 227.248 1182.66 227.248 1197.47 231.18C1212.27 235.112 1227.85 235.112 1242.66 231.18C1257.46 227.248 1273.04 227.248 1287.84 231.18C1302.65 235.112 1318.23 235.112 1333.03 231.18C1347.84 227.248 1363.41 227.248 1378.22 231.18C1393.02 235.112 1408.6 235.112 1423.41 231.18V231.18C1438.21 227.248 1453.79 227.248 1468.59 231.18V231.18C1483.4 235.112 1498.98 235.112 1513.78 231.18C1528.59 227.248 1544.16 227.248 1558.97 231.18C1573.77 235.112 1589.35 235.112 1604.16 231.18C1618.96 227.248 1634.54 227.248 1649.34 231.18C1664.15 235.112 1679.73 235.112 1694.53 231.18C1709.34 227.248 1724.91 227.248 1739.72 231.18C1754.52 235.112 1770.1 235.112 1784.91 231.18C1799.71 227.248 1815.29 227.248 1830.09 231.18C1844.9 235.112 1860.48 235.112 1875.28 231.18C1890.09 227.248 1905.66 227.248 1920.47 231.18C1935.27 235.112 1950.85 235.112 1965.66 231.18C1980.46 227.248 1996.04 227.248 2010.84 231.18C2025.65 235.112 2041.23 235.112 2056.03 231.18C2070.84 227.248 2086.41 227.248 2101.22 231.18C2116.02 235.112 2131.6 235.112 2146.41 231.18C2161.21 227.248 2176.79 227.248 2191.59 231.18C2206.4 235.112 2221.98 235.112 2236.78 231.18C2251.59 227.248 2267.16 227.248 2281.97 231.18C2296.77 235.112 2312.35 235.112 2327.16 231.18C2341.96 227.248 2357.54 227.248 2372.34 231.18C2387.15 235.112 2402.73 235.112 2417.53 231.18C2432.34 227.248 2447.91 227.248 2462.72 231.18C2477.52 235.112 2493.1 235.112 2507.91 231.18C2522.71 227.248 2538.29 227.248 2553.09 231.18C2567.9 235.112 2583.48 235.112 2598.28 231.18C2613.09 227.248 2628.66 227.248 2643.47 231.18C2658.27 235.112 2673.85 235.112 2688.66 231.18C2703.46 227.248 2719.04 227.248 2733.84 231.18C2748.65 235.112 2764.23 235.112 2779.03 231.18C2793.84 227.248 2809.41 227.248 2824.22 231.18C2839.02 235.112 2854.6 235.112 2869.41 231.18L2892 225.18" stroke="#56CCF2" stroke-opacity="0.4" stroke-width="3"></path> <path d="M0 253.077L22.5937 259.077C37.3996 263.009 52.9753 263.009 67.7812 259.077C82.5872 255.145 98.1628 255.145 112.969 259.077C127.775 263.009 143.35 263.009 158.156 259.077C172.962 255.145 188.538 255.145 203.344 259.077C218.15 263.009 233.725 263.009 248.531 259.077C263.337 255.145 278.913 255.145 293.719 259.077C308.525 263.009 324.1 263.009 338.906 259.077C353.712 255.145 369.288 255.145 384.094 259.077C398.9 263.009 414.475 263.009 429.281 259.077C444.087 255.145 459.663 255.145 474.469 259.077C489.275 263.009 504.85 263.009 519.656 259.077C534.462 255.145 550.038 255.145 564.844 259.077C579.65 263.009 595.225 263.009 610.031 259.077C624.837 255.145 640.413 255.145 655.219 259.077C670.025 263.009 685.6 263.009 700.406 259.077C715.212 255.145 730.788 255.145 745.594 259.077C760.4 263.009 775.975 263.009 790.781 259.077C805.587 255.145 821.163 255.145 835.969 259.077C850.775 263.009 866.35 263.009 881.156 259.077C895.962 255.145 911.538 255.145 926.344 259.077C941.15 263.009 956.725 263.009 971.531 259.077C986.337 255.145 1001.91 255.145 1016.72 259.077C1031.52 263.009 1047.1 263.009 1061.91 259.077C1076.71 255.145 1092.29 255.145 1107.09 259.077C1121.9 263.009 1137.48 263.009 1152.28 259.077C1167.09 255.145 1182.66 255.145 1197.47 259.077C1212.27 263.009 1227.85 263.009 1242.66 259.077C1257.46 255.145 1273.04 255.145 1287.84 259.077C1302.65 263.009 1318.23 263.009 1333.03 259.077C1347.84 255.145 1363.41 255.145 1378.22 259.077C1393.02 263.009 1408.6 263.009 1423.41 259.077V259.077C1438.21 255.145 1453.79 255.145 1468.59 259.077V259.077C1483.4 263.009 1498.98 263.009 1513.78 259.077C1528.59 255.145 1544.16 255.145 1558.97 259.077C1573.77 263.009 1589.35 263.009 1604.16 259.077C1618.96 255.145 1634.54 255.145 1649.34 259.077C1664.15 263.009 1679.73 263.009 1694.53 259.077C1709.34 255.145 1724.91 255.145 1739.72 259.077C1754.52 263.009 1770.1 263.009 1784.91 259.077C1799.71 255.145 1815.29 255.145 1830.09 259.077C1844.9 263.009 1860.48 263.009 1875.28 259.077C1890.09 255.145 1905.66 255.145 1920.47 259.077C1935.27 263.009 1950.85 263.009 1965.66 259.077C1980.46 255.145 1996.04 255.145 2010.84 259.077C2025.65 263.009 2041.23 263.009 2056.03 259.077C2070.84 255.145 2086.41 255.145 2101.22 259.077C2116.02 263.009 2131.6 263.009 2146.41 259.077C2161.21 255.145 2176.79 255.145 2191.59 259.077C2206.4 263.009 2221.98 263.009 2236.78 259.077C2251.59 255.145 2267.16 255.145 2281.97 259.077C2296.77 263.009 2312.35 263.009 2327.16 259.077C2341.96 255.145 2357.54 255.145 2372.34 259.077C2387.15 263.009 2402.73 263.009 2417.53 259.077C2432.34 255.145 2447.91 255.145 2462.72 259.077C2477.52 263.009 2493.1 263.009 2507.91 259.077C2522.71 255.145 2538.29 255.145 2553.09 259.077C2567.9 263.009 2583.48 263.009 2598.28 259.077C2613.09 255.145 2628.66 255.145 2643.47 259.077C2658.27 263.009 2673.85 263.009 2688.66 259.077C2703.46 255.145 2719.04 255.145 2733.84 259.077C2748.65 263.009 2764.23 263.009 2779.03 259.077C2793.84 255.145 2809.41 255.145 2824.22 259.077C2839.02 263.009 2854.6 263.009 2869.41 259.077L2892 253.077" stroke="#56CCF2" stroke-opacity="0.4" stroke-width="3"></path> <path d="M0 280.975L22.5937 286.975C37.3996 290.906 52.9753 290.906 67.7812 286.975C82.5872 283.043 98.1628 283.043 112.969 286.975C127.775 290.906 143.35 290.906 158.156 286.975C172.962 283.043 188.538 283.043 203.344 286.975C218.15 290.906 233.725 290.906 248.531 286.975C263.337 283.043 278.913 283.043 293.719 286.975C308.525 290.906 324.1 290.906 338.906 286.975C353.712 283.043 369.288 283.043 384.094 286.975C398.9 290.906 414.475 290.906 429.281 286.975C444.087 283.043 459.663 283.043 474.469 286.975C489.275 290.906 504.85 290.906 519.656 286.975C534.462 283.043 550.038 283.043 564.844 286.975C579.65 290.906 595.225 290.906 610.031 286.975C624.837 283.043 640.413 283.043 655.219 286.975C670.025 290.906 685.6 290.906 700.406 286.975C715.212 283.043 730.788 283.043 745.594 286.975C760.4 290.906 775.975 290.906 790.781 286.975C805.587 283.043 821.163 283.043 835.969 286.975C850.775 290.906 866.35 290.906 881.156 286.975C895.962 283.043 911.538 283.043 926.344 286.975C941.15 290.906 956.725 290.906 971.531 286.975C986.337 283.043 1001.91 283.043 1016.72 286.975C1031.52 290.906 1047.1 290.906 1061.91 286.975C1076.71 283.043 1092.29 283.043 1107.09 286.975C1121.9 290.906 1137.48 290.906 1152.28 286.975C1167.09 283.043 1182.66 283.043 1197.47 286.975C1212.27 290.906 1227.85 290.906 1242.66 286.975C1257.46 283.043 1273.04 283.043 1287.84 286.975C1302.65 290.906 1318.23 290.906 1333.03 286.975C1347.84 283.043 1363.41 283.043 1378.22 286.975C1393.02 290.906 1408.6 290.906 1423.41 286.975V286.975C1438.21 283.043 1453.79 283.043 1468.59 286.975V286.975C1483.4 290.906 1498.98 290.906 1513.78 286.975C1528.59 283.043 1544.16 283.043 1558.97 286.975C1573.77 290.906 1589.35 290.906 1604.16 286.975C1618.96 283.043 1634.54 283.043 1649.34 286.975C1664.15 290.906 1679.73 290.906 1694.53 286.975C1709.34 283.043 1724.91 283.043 1739.72 286.975C1754.52 290.906 1770.1 290.906 1784.91 286.975C1799.71 283.043 1815.29 283.043 1830.09 286.975C1844.9 290.906 1860.48 290.906 1875.28 286.975C1890.09 283.043 1905.66 283.043 1920.47 286.975C1935.27 290.906 1950.85 290.906 1965.66 286.975C1980.46 283.043 1996.04 283.043 2010.84 286.975C2025.65 290.906 2041.23 290.906 2056.03 286.975C2070.84 283.043 2086.41 283.043 2101.22 286.975C2116.02 290.906 2131.6 290.906 2146.41 286.975C2161.21 283.043 2176.79 283.043 2191.59 286.975C2206.4 290.906 2221.98 290.906 2236.78 286.975C2251.59 283.043 2267.16 283.043 2281.97 286.975C2296.77 290.906 2312.35 290.906 2327.16 286.975C2341.96 283.043 2357.54 283.043 2372.34 286.975C2387.15 290.906 2402.73 290.906 2417.53 286.975C2432.34 283.043 2447.91 283.043 2462.72 286.975C2477.52 290.906 2493.1 290.906 2507.91 286.975C2522.71 283.043 2538.29 283.043 2553.09 286.975C2567.9 290.906 2583.48 290.906 2598.28 286.975C2613.09 283.043 2628.66 283.043 2643.47 286.975C2658.27 290.906 2673.85 290.906 2688.66 286.975C2703.46 283.043 2719.04 283.043 2733.84 286.975C2748.65 290.906 2764.23 290.906 2779.03 286.975C2793.84 283.043 2809.41 283.043 2824.22 286.975C2839.02 290.906 2854.6 290.906 2869.41 286.975L2892 280.975" stroke="#56CCF2" stroke-opacity="0.4" stroke-width="3"></path> <path d="M0 308.872L22.5937 314.872C37.3996 318.804 52.9753 318.804 67.7812 314.872C82.5872 310.94 98.1628 310.94 112.969 314.872C127.775 318.804 143.35 318.804 158.156 314.872C172.962 310.94 188.538 310.94 203.344 314.872C218.15 318.804 233.725 318.804 248.531 314.872C263.337 310.94 278.913 310.94 293.719 314.872C308.525 318.804 324.1 318.804 338.906 314.872C353.712 310.94 369.288 310.94 384.094 314.872C398.9 318.804 414.475 318.804 429.281 314.872C444.087 310.94 459.663 310.94 474.469 314.872C489.275 318.804 504.85 318.804 519.656 314.872C534.462 310.94 550.038 310.94 564.844 314.872C579.65 318.804 595.225 318.804 610.031 314.872C624.837 310.94 640.413 310.94 655.219 314.872C670.025 318.804 685.6 318.804 700.406 314.872C715.212 310.94 730.788 310.94 745.594 314.872C760.4 318.804 775.975 318.804 790.781 314.872C805.587 310.94 821.163 310.94 835.969 314.872C850.775 318.804 866.35 318.804 881.156 314.872C895.962 310.94 911.538 310.94 926.344 314.872C941.15 318.804 956.725 318.804 971.531 314.872C986.337 310.94 1001.91 310.94 1016.72 314.872C1031.52 318.804 1047.1 318.804 1061.91 314.872C1076.71 310.94 1092.29 310.94 1107.09 314.872C1121.9 318.804 1137.48 318.804 1152.28 314.872C1167.09 310.94 1182.66 310.94 1197.47 314.872C1212.27 318.804 1227.85 318.804 1242.66 314.872C1257.46 310.94 1273.04 310.94 1287.84 314.872C1302.65 318.804 1318.23 318.804 1333.03 314.872C1347.84 310.94 1363.41 310.94 1378.22 314.872C1393.02 318.804 1408.6 318.804 1423.41 314.872V314.872C1438.21 310.94 1453.79 310.94 1468.59 314.872V314.872C1483.4 318.804 1498.98 318.804 1513.78 314.872C1528.59 310.94 1544.16 310.94 1558.97 314.872C1573.77 318.804 1589.35 318.804 1604.16 314.872C1618.96 310.94 1634.54 310.94 1649.34 314.872C1664.15 318.804 1679.73 318.804 1694.53 314.872C1709.34 310.94 1724.91 310.94 1739.72 314.872C1754.52 318.804 1770.1 318.804 1784.91 314.872C1799.71 310.94 1815.29 310.94 1830.09 314.872C1844.9 318.804 1860.48 318.804 1875.28 314.872C1890.09 310.94 1905.66 310.94 1920.47 314.872C1935.27 318.804 1950.85 318.804 1965.66 314.872C1980.46 310.94 1996.04 310.94 2010.84 314.872C2025.65 318.804 2041.23 318.804 2056.03 314.872C2070.84 310.94 2086.41 310.94 2101.22 314.872C2116.02 318.804 2131.6 318.804 2146.41 314.872C2161.21 310.94 2176.79 310.94 2191.59 314.872C2206.4 318.804 2221.98 318.804 2236.78 314.872C2251.59 310.94 2267.16 310.94 2281.97 314.872C2296.77 318.804 2312.35 318.804 2327.16 314.872C2341.96 310.94 2357.54 310.94 2372.34 314.872C2387.15 318.804 2402.73 318.804 2417.53 314.872C2432.34 310.94 2447.91 310.94 2462.72 314.872C2477.52 318.804 2493.1 318.804 2507.91 314.872C2522.71 310.94 2538.29 310.94 2553.09 314.872C2567.9 318.804 2583.48 318.804 2598.28 314.872C2613.09 310.94 2628.66 310.94 2643.47 314.872C2658.27 318.804 2673.85 318.804 2688.66 314.872C2703.46 310.94 2719.04 310.94 2733.84 314.872C2748.65 318.804 2764.23 318.804 2779.03 314.872C2793.84 310.94 2809.41 310.94 2824.22 314.872C2839.02 318.804 2854.6 318.804 2869.41 314.872L2892 308.872" stroke="#56CCF2" stroke-opacity="0.4" stroke-width="3"></path> <path d="M0 15.9487L22.5937 21.9487C37.3996 25.8806 52.9753 25.8806 67.7812 21.9487C82.5872 18.0169 98.1628 18.0169 112.969 21.9487C127.775 25.8806 143.35 25.8806 158.156 21.9487C172.962 18.0169 188.538 18.0169 203.344 21.9487C218.15 25.8806 233.725 25.8806 248.531 21.9487C263.337 18.0169 278.913 18.0169 293.719 21.9487C308.525 25.8806 324.1 25.8806 338.906 21.9487C353.712 18.0169 369.288 18.0169 384.094 21.9487C398.9 25.8806 414.475 25.8806 429.281 21.9487C444.087 18.0169 459.663 18.0169 474.469 21.9487C489.275 25.8806 504.85 25.8806 519.656 21.9487C534.462 18.0169 550.038 18.0169 564.844 21.9487C579.65 25.8806 595.225 25.8806 610.031 21.9487C624.837 18.0169 640.413 18.0169 655.219 21.9487C670.025 25.8806 685.6 25.8806 700.406 21.9487C715.212 18.0169 730.788 18.0169 745.594 21.9487C760.4 25.8806 775.975 25.8806 790.781 21.9487C805.587 18.0169 821.163 18.0169 835.969 21.9487C850.775 25.8806 866.35 25.8806 881.156 21.9487C895.962 18.0169 911.538 18.0169 926.344 21.9487C941.15 25.8806 956.725 25.8806 971.531 21.9487C986.337 18.0169 1001.91 18.0169 1016.72 21.9487C1031.52 25.8806 1047.1 25.8806 1061.91 21.9487C1076.71 18.0169 1092.29 18.0169 1107.09 21.9487C1121.9 25.8806 1137.48 25.8806 1152.28 21.9487C1167.09 18.0169 1182.66 18.0169 1197.47 21.9487C1212.27 25.8806 1227.85 25.8806 1242.66 21.9487C1257.46 18.0169 1273.04 18.0169 1287.84 21.9487C1302.65 25.8806 1318.23 25.8806 1333.03 21.9487C1347.84 18.0169 1363.41 18.0169 1378.22 21.9487C1393.02 25.8806 1408.6 25.8806 1423.41 21.9487V21.9487C1438.21 18.0169 1453.79 18.0169 1468.59 21.9487V21.9487C1483.4 25.8806 1498.98 25.8806 1513.78 21.9487C1528.59 18.0169 1544.16 18.0169 1558.97 21.9487C1573.77 25.8806 1589.35 25.8806 1604.16 21.9487C1618.96 18.0169 1634.54 18.0169 1649.34 21.9487C1664.15 25.8806 1679.73 25.8806 1694.53 21.9487C1709.34 18.0169 1724.91 18.0169 1739.72 21.9487C1754.52 25.8806 1770.1 25.8806 1784.91 21.9487C1799.71 18.0169 1815.29 18.0169 1830.09 21.9487C1844.9 25.8806 1860.48 25.8806 1875.28 21.9487C1890.09 18.0169 1905.66 18.0169 1920.47 21.9487C1935.27 25.8806 1950.85 25.8806 1965.66 21.9487C1980.46 18.0169 1996.04 18.0169 2010.84 21.9487C2025.65 25.8806 2041.23 25.8806 2056.03 21.9487C2070.84 18.0169 2086.41 18.0169 2101.22 21.9487C2116.02 25.8806 2131.6 25.8806 2146.41 21.9487C2161.21 18.0169 2176.79 18.0169 2191.59 21.9487C2206.4 25.8806 2221.98 25.8806 2236.78 21.9487C2251.59 18.0169 2267.16 18.0169 2281.97 21.9487C2296.77 25.8806 2312.35 25.8806 2327.16 21.9487C2341.96 18.0169 2357.54 18.0169 2372.34 21.9487C2387.15 25.8806 2402.73 25.8806 2417.53 21.9487C2432.34 18.0169 2447.91 18.0169 2462.72 21.9487C2477.52 25.8806 2493.1 25.8806 2507.91 21.9487C2522.71 18.0169 2538.29 18.0169 2553.09 21.9487C2567.9 25.8806 2583.48 25.8806 2598.28 21.9487C2613.09 18.0169 2628.66 18.0169 2643.47 21.9487C2658.27 25.8806 2673.85 25.8806 2688.66 21.9487C2703.46 18.0169 2719.04 18.0169 2733.84 21.9487C2748.65 25.8806 2764.23 25.8806 2779.03 21.9487C2793.84 18.0169 2809.41 18.0169 2824.22 21.9487C2839.02 25.8806 2854.6 25.8806 2869.41 21.9487L2892 15.9487" stroke="#56CCF2" stroke-opacity="0.4" stroke-width="3"></path> <path d="M0 43.8462L22.5937 49.8462C37.3996 53.778 52.9753 53.7781 67.7812 49.8462C82.5872 45.9143 98.1628 45.9143 112.969 49.8462C127.775 53.7781 143.35 53.7781 158.156 49.8462C172.962 45.9143 188.538 45.9143 203.344 49.8462C218.15 53.7781 233.725 53.7781 248.531 49.8462C263.337 45.9143 278.913 45.9143 293.719 49.8462C308.525 53.7781 324.1 53.7781 338.906 49.8462C353.712 45.9143 369.288 45.9143 384.094 49.8462C398.9 53.7781 414.475 53.7781 429.281 49.8462C444.087 45.9143 459.663 45.9143 474.469 49.8462C489.275 53.7781 504.85 53.7781 519.656 49.8462C534.462 45.9143 550.038 45.9143 564.844 49.8462C579.65 53.7781 595.225 53.7781 610.031 49.8462C624.837 45.9143 640.413 45.9143 655.219 49.8462C670.025 53.7781 685.6 53.7781 700.406 49.8462C715.212 45.9143 730.788 45.9143 745.594 49.8462C760.4 53.7781 775.975 53.7781 790.781 49.8462C805.587 45.9143 821.163 45.9143 835.969 49.8462C850.775 53.7781 866.35 53.7781 881.156 49.8462C895.962 45.9143 911.538 45.9143 926.344 49.8462C941.15 53.7781 956.725 53.7781 971.531 49.8462C986.337 45.9143 1001.91 45.9143 1016.72 49.8462C1031.52 53.7781 1047.1 53.7781 1061.91 49.8462C1076.71 45.9143 1092.29 45.9143 1107.09 49.8462C1121.9 53.7781 1137.48 53.7781 1152.28 49.8462C1167.09 45.9143 1182.66 45.9143 1197.47 49.8462C1212.27 53.7781 1227.85 53.7781 1242.66 49.8462C1257.46 45.9143 1273.04 45.9143 1287.84 49.8462C1302.65 53.7781 1318.23 53.7781 1333.03 49.8462C1347.84 45.9143 1363.41 45.9143 1378.22 49.8462C1393.02 53.7781 1408.6 53.7781 1423.41 49.8462V49.8462C1438.21 45.9143 1453.79 45.9143 1468.59 49.8462V49.8462C1483.4 53.778 1498.98 53.7781 1513.78 49.8462C1528.59 45.9143 1544.16 45.9143 1558.97 49.8462C1573.77 53.7781 1589.35 53.7781 1604.16 49.8462C1618.96 45.9143 1634.54 45.9143 1649.34 49.8462C1664.15 53.7781 1679.73 53.7781 1694.53 49.8462C1709.34 45.9143 1724.91 45.9143 1739.72 49.8462C1754.52 53.7781 1770.1 53.7781 1784.91 49.8462C1799.71 45.9143 1815.29 45.9143 1830.09 49.8462C1844.9 53.7781 1860.48 53.7781 1875.28 49.8462C1890.09 45.9143 1905.66 45.9143 1920.47 49.8462C1935.27 53.7781 1950.85 53.7781 1965.66 49.8462C1980.46 45.9143 1996.04 45.9143 2010.84 49.8462C2025.65 53.7781 2041.23 53.7781 2056.03 49.8462C2070.84 45.9143 2086.41 45.9143 2101.22 49.8462C2116.02 53.7781 2131.6 53.7781 2146.41 49.8462C2161.21 45.9143 2176.79 45.9143 2191.59 49.8462C2206.4 53.7781 2221.98 53.7781 2236.78 49.8462C2251.59 45.9143 2267.16 45.9143 2281.97 49.8462C2296.77 53.7781 2312.35 53.7781 2327.16 49.8462C2341.96 45.9143 2357.54 45.9143 2372.34 49.8462C2387.15 53.7781 2402.73 53.7781 2417.53 49.8462C2432.34 45.9143 2447.91 45.9143 2462.72 49.8462C2477.52 53.7781 2493.1 53.7781 2507.91 49.8462C2522.71 45.9143 2538.29 45.9143 2553.09 49.8462C2567.9 53.7781 2583.48 53.7781 2598.28 49.8462C2613.09 45.9143 2628.66 45.9143 2643.47 49.8462C2658.27 53.7781 2673.85 53.7781 2688.66 49.8462C2703.46 45.9143 2719.04 45.9143 2733.84 49.8462C2748.65 53.7781 2764.23 53.7781 2779.03 49.8462C2793.84 45.9143 2809.41 45.9143 2824.22 49.8462C2839.02 53.7781 2854.6 53.7781 2869.41 49.8462L2892 43.8462" stroke="#56CCF2" stroke-opacity="0.4" stroke-width="3"></path> <path d="M0 71.7437L22.5937 77.7437C37.3996 81.6755 52.9753 81.6755 67.7812 77.7437C82.5872 73.8118 98.1628 73.8118 112.969 77.7437C127.775 81.6755 143.35 81.6755 158.156 77.7437C172.962 73.8118 188.538 73.8118 203.344 77.7437C218.15 81.6755 233.725 81.6755 248.531 77.7437C263.337 73.8118 278.913 73.8118 293.719 77.7437C308.525 81.6755 324.1 81.6755 338.906 77.7437C353.712 73.8118 369.288 73.8118 384.094 77.7437C398.9 81.6755 414.475 81.6755 429.281 77.7437C444.087 73.8118 459.663 73.8118 474.469 77.7437C489.275 81.6755 504.85 81.6755 519.656 77.7437C534.462 73.8118 550.038 73.8118 564.844 77.7437C579.65 81.6755 595.225 81.6755 610.031 77.7437C624.837 73.8118 640.413 73.8118 655.219 77.7437C670.025 81.6755 685.6 81.6755 700.406 77.7437C715.212 73.8118 730.788 73.8118 745.594 77.7437C760.4 81.6755 775.975 81.6755 790.781 77.7437C805.587 73.8118 821.163 73.8118 835.969 77.7437C850.775 81.6755 866.35 81.6755 881.156 77.7437C895.962 73.8118 911.538 73.8118 926.344 77.7437C941.15 81.6755 956.725 81.6755 971.531 77.7437C986.337 73.8118 1001.91 73.8118 1016.72 77.7437C1031.52 81.6755 1047.1 81.6755 1061.91 77.7437C1076.71 73.8118 1092.29 73.8118 1107.09 77.7437C1121.9 81.6755 1137.48 81.6755 1152.28 77.7437C1167.09 73.8118 1182.66 73.8118 1197.47 77.7437C1212.27 81.6755 1227.85 81.6755 1242.66 77.7437C1257.46 73.8118 1273.04 73.8118 1287.84 77.7437C1302.65 81.6755 1318.23 81.6755 1333.03 77.7437C1347.84 73.8118 1363.41 73.8118 1378.22 77.7437C1393.02 81.6755 1408.6 81.6755 1423.41 77.7437V77.7437C1438.21 73.8118 1453.79 73.8118 1468.59 77.7437V77.7437C1483.4 81.6755 1498.98 81.6755 1513.78 77.7437C1528.59 73.8118 1544.16 73.8118 1558.97 77.7437C1573.77 81.6755 1589.35 81.6755 1604.16 77.7437C1618.96 73.8118 1634.54 73.8118 1649.34 77.7437C1664.15 81.6755 1679.73 81.6755 1694.53 77.7437C1709.34 73.8118 1724.91 73.8118 1739.72 77.7437C1754.52 81.6755 1770.1 81.6755 1784.91 77.7437C1799.71 73.8118 1815.29 73.8118 1830.09 77.7437C1844.9 81.6755 1860.48 81.6755 1875.28 77.7437C1890.09 73.8118 1905.66 73.8118 1920.47 77.7437C1935.27 81.6755 1950.85 81.6755 1965.66 77.7437C1980.46 73.8118 1996.04 73.8118 2010.84 77.7437C2025.65 81.6755 2041.23 81.6755 2056.03 77.7437C2070.84 73.8118 2086.41 73.8118 2101.22 77.7437C2116.02 81.6755 2131.6 81.6755 2146.41 77.7437C2161.21 73.8118 2176.79 73.8118 2191.59 77.7437C2206.4 81.6755 2221.98 81.6755 2236.78 77.7437C2251.59 73.8118 2267.16 73.8118 2281.97 77.7437C2296.77 81.6755 2312.35 81.6755 2327.16 77.7437C2341.96 73.8118 2357.54 73.8118 2372.34 77.7437C2387.15 81.6755 2402.73 81.6755 2417.53 77.7437C2432.34 73.8118 2447.91 73.8118 2462.72 77.7437C2477.52 81.6755 2493.1 81.6755 2507.91 77.7437C2522.71 73.8118 2538.29 73.8118 2553.09 77.7437C2567.9 81.6755 2583.48 81.6755 2598.28 77.7437C2613.09 73.8118 2628.66 73.8118 2643.47 77.7437C2658.27 81.6755 2673.85 81.6755 2688.66 77.7437C2703.46 73.8118 2719.04 73.8118 2733.84 77.7437C2748.65 81.6755 2764.23 81.6755 2779.03 77.7437C2793.84 73.8118 2809.41 73.8118 2824.22 77.7437C2839.02 81.6755 2854.6 81.6755 2869.41 77.7437L2892 71.7437" stroke="#56CCF2" stroke-opacity="0.4" stroke-width="3"></path> <path d="M0 99.6411L22.5937 105.641C37.3996 109.573 52.9753 109.573 67.7812 105.641C82.5872 101.709 98.1628 101.709 112.969 105.641C127.775 109.573 143.35 109.573 158.156 105.641C172.962 101.709 188.538 101.709 203.344 105.641C218.15 109.573 233.725 109.573 248.531 105.641C263.337 101.709 278.913 101.709 293.719 105.641C308.525 109.573 324.1 109.573 338.906 105.641C353.712 101.709 369.288 101.709 384.094 105.641C398.9 109.573 414.475 109.573 429.281 105.641C444.087 101.709 459.663 101.709 474.469 105.641C489.275 109.573 504.85 109.573 519.656 105.641C534.462 101.709 550.038 101.709 564.844 105.641C579.65 109.573 595.225 109.573 610.031 105.641C624.837 101.709 640.413 101.709 655.219 105.641C670.025 109.573 685.6 109.573 700.406 105.641C715.212 101.709 730.788 101.709 745.594 105.641C760.4 109.573 775.975 109.573 790.781 105.641C805.587 101.709 821.163 101.709 835.969 105.641C850.775 109.573 866.35 109.573 881.156 105.641C895.962 101.709 911.538 101.709 926.344 105.641C941.15 109.573 956.725 109.573 971.531 105.641C986.337 101.709 1001.91 101.709 1016.72 105.641C1031.52 109.573 1047.1 109.573 1061.91 105.641C1076.71 101.709 1092.29 101.709 1107.09 105.641C1121.9 109.573 1137.48 109.573 1152.28 105.641C1167.09 101.709 1182.66 101.709 1197.47 105.641C1212.27 109.573 1227.85 109.573 1242.66 105.641C1257.46 101.709 1273.04 101.709 1287.84 105.641C1302.65 109.573 1318.23 109.573 1333.03 105.641C1347.84 101.709 1363.41 101.709 1378.22 105.641C1393.02 109.573 1408.6 109.573 1423.41 105.641V105.641C1438.21 101.709 1453.79 101.709 1468.59 105.641V105.641C1483.4 109.573 1498.98 109.573 1513.78 105.641C1528.59 101.709 1544.16 101.709 1558.97 105.641C1573.77 109.573 1589.35 109.573 1604.16 105.641C1618.96 101.709 1634.54 101.709 1649.34 105.641C1664.15 109.573 1679.73 109.573 1694.53 105.641C1709.34 101.709 1724.91 101.709 1739.72 105.641C1754.52 109.573 1770.1 109.573 1784.91 105.641C1799.71 101.709 1815.29 101.709 1830.09 105.641C1844.9 109.573 1860.48 109.573 1875.28 105.641C1890.09 101.709 1905.66 101.709 1920.47 105.641C1935.27 109.573 1950.85 109.573 1965.66 105.641C1980.46 101.709 1996.04 101.709 2010.84 105.641C2025.65 109.573 2041.23 109.573 2056.03 105.641C2070.84 101.709 2086.41 101.709 2101.22 105.641C2116.02 109.573 2131.6 109.573 2146.41 105.641C2161.21 101.709 2176.79 101.709 2191.59 105.641C2206.4 109.573 2221.98 109.573 2236.78 105.641C2251.59 101.709 2267.16 101.709 2281.97 105.641C2296.77 109.573 2312.35 109.573 2327.16 105.641C2341.96 101.709 2357.54 101.709 2372.34 105.641C2387.15 109.573 2402.73 109.573 2417.53 105.641C2432.34 101.709 2447.91 101.709 2462.72 105.641C2477.52 109.573 2493.1 109.573 2507.91 105.641C2522.71 101.709 2538.29 101.709 2553.09 105.641C2567.9 109.573 2583.48 109.573 2598.28 105.641C2613.09 101.709 2628.66 101.709 2643.47 105.641C2658.27 109.573 2673.85 109.573 2688.66 105.641C2703.46 101.709 2719.04 101.709 2733.84 105.641C2748.65 109.573 2764.23 109.573 2779.03 105.641C2793.84 101.709 2809.41 101.709 2824.22 105.641C2839.02 109.573 2854.6 109.573 2869.41 105.641L2892 99.6411" stroke="#56CCF2" stroke-opacity="0.4" stroke-width="3"></path> <path d="M0 127.539L22.5937 133.539C37.3996 137.47 52.9753 137.47 67.7812 133.539C82.5872 129.607 98.1628 129.607 112.969 133.539C127.775 137.47 143.35 137.47 158.156 133.539C172.962 129.607 188.538 129.607 203.344 133.539C218.15 137.47 233.725 137.47 248.531 133.539C263.337 129.607 278.913 129.607 293.719 133.539C308.525 137.47 324.1 137.47 338.906 133.539C353.712 129.607 369.288 129.607 384.094 133.539C398.9 137.47 414.475 137.47 429.281 133.539C444.087 129.607 459.663 129.607 474.469 133.539C489.275 137.47 504.85 137.47 519.656 133.539C534.462 129.607 550.038 129.607 564.844 133.539C579.65 137.47 595.225 137.47 610.031 133.539C624.837 129.607 640.413 129.607 655.219 133.539C670.025 137.47 685.6 137.47 700.406 133.539C715.212 129.607 730.788 129.607 745.594 133.539C760.4 137.47 775.975 137.47 790.781 133.539C805.587 129.607 821.163 129.607 835.969 133.539C850.775 137.47 866.35 137.47 881.156 133.539C895.962 129.607 911.538 129.607 926.344 133.539C941.15 137.47 956.725 137.47 971.531 133.539C986.337 129.607 1001.91 129.607 1016.72 133.539C1031.52 137.47 1047.1 137.47 1061.91 133.539C1076.71 129.607 1092.29 129.607 1107.09 133.539C1121.9 137.47 1137.48 137.47 1152.28 133.539C1167.09 129.607 1182.66 129.607 1197.47 133.539C1212.27 137.47 1227.85 137.47 1242.66 133.539C1257.46 129.607 1273.04 129.607 1287.84 133.539C1302.65 137.47 1318.23 137.47 1333.03 133.539C1347.84 129.607 1363.41 129.607 1378.22 133.539C1393.02 137.47 1408.6 137.47 1423.41 133.539V133.539C1438.21 129.607 1453.79 129.607 1468.59 133.539V133.539C1483.4 137.47 1498.98 137.47 1513.78 133.539C1528.59 129.607 1544.16 129.607 1558.97 133.539C1573.77 137.47 1589.35 137.47 1604.16 133.539C1618.96 129.607 1634.54 129.607 1649.34 133.539C1664.15 137.47 1679.73 137.47 1694.53 133.539C1709.34 129.607 1724.91 129.607 1739.72 133.539C1754.52 137.47 1770.1 137.47 1784.91 133.539C1799.71 129.607 1815.29 129.607 1830.09 133.539C1844.9 137.47 1860.48 137.47 1875.28 133.539C1890.09 129.607 1905.66 129.607 1920.47 133.539C1935.27 137.47 1950.85 137.47 1965.66 133.539C1980.46 129.607 1996.04 129.607 2010.84 133.539C2025.65 137.47 2041.23 137.47 2056.03 133.539C2070.84 129.607 2086.41 129.607 2101.22 133.539C2116.02 137.47 2131.6 137.47 2146.41 133.539C2161.21 129.607 2176.79 129.607 2191.59 133.539C2206.4 137.47 2221.98 137.47 2236.78 133.539C2251.59 129.607 2267.16 129.607 2281.97 133.539C2296.77 137.47 2312.35 137.47 2327.16 133.539C2341.96 129.607 2357.54 129.607 2372.34 133.539C2387.15 137.47 2402.73 137.47 2417.53 133.539C2432.34 129.607 2447.91 129.607 2462.72 133.539C2477.52 137.47 2493.1 137.47 2507.91 133.539C2522.71 129.607 2538.29 129.607 2553.09 133.539C2567.9 137.47 2583.48 137.47 2598.28 133.539C2613.09 129.607 2628.66 129.607 2643.47 133.539C2658.27 137.47 2673.85 137.47 2688.66 133.539C2703.46 129.607 2719.04 129.607 2733.84 133.539C2748.65 137.47 2764.23 137.47 2779.03 133.539C2793.84 129.607 2809.41 129.607 2824.22 133.539C2839.02 137.47 2854.6 137.47 2869.41 133.539L2892 127.539" stroke="#56CCF2" stroke-opacity="0.4" stroke-width="3"></path> <path d="M0 155.436L22.5937 161.436C37.3996 165.368 52.9753 165.368 67.7812 161.436C82.5872 157.504 98.1628 157.504 112.969 161.436C127.775 165.368 143.35 165.368 158.156 161.436C172.962 157.504 188.538 157.504 203.344 161.436C218.15 165.368 233.725 165.368 248.531 161.436C263.337 157.504 278.913 157.504 293.719 161.436C308.525 165.368 324.1 165.368 338.906 161.436C353.712 157.504 369.288 157.504 384.094 161.436C398.9 165.368 414.475 165.368 429.281 161.436C444.087 157.504 459.663 157.504 474.469 161.436C489.275 165.368 504.85 165.368 519.656 161.436C534.462 157.504 550.038 157.504 564.844 161.436C579.65 165.368 595.225 165.368 610.031 161.436C624.837 157.504 640.413 157.504 655.219 161.436C670.025 165.368 685.6 165.368 700.406 161.436C715.212 157.504 730.788 157.504 745.594 161.436C760.4 165.368 775.975 165.368 790.781 161.436C805.587 157.504 821.163 157.504 835.969 161.436C850.775 165.368 866.35 165.368 881.156 161.436C895.962 157.504 911.538 157.504 926.344 161.436C941.15 165.368 956.725 165.368 971.531 161.436C986.337 157.504 1001.91 157.504 1016.72 161.436C1031.52 165.368 1047.1 165.368 1061.91 161.436C1076.71 157.504 1092.29 157.504 1107.09 161.436C1121.9 165.368 1137.48 165.368 1152.28 161.436C1167.09 157.504 1182.66 157.504 1197.47 161.436C1212.27 165.368 1227.85 165.368 1242.66 161.436C1257.46 157.504 1273.04 157.504 1287.84 161.436C1302.65 165.368 1318.23 165.368 1333.03 161.436C1347.84 157.504 1363.41 157.504 1378.22 161.436C1393.02 165.368 1408.6 165.368 1423.41 161.436V161.436C1438.21 157.504 1453.79 157.504 1468.59 161.436V161.436C1483.4 165.368 1498.98 165.368 1513.78 161.436C1528.59 157.504 1544.16 157.504 1558.97 161.436C1573.77 165.368 1589.35 165.368 1604.16 161.436C1618.96 157.504 1634.54 157.504 1649.34 161.436C1664.15 165.368 1679.73 165.368 1694.53 161.436C1709.34 157.504 1724.91 157.504 1739.72 161.436C1754.52 165.368 1770.1 165.368 1784.91 161.436C1799.71 157.504 1815.29 157.504 1830.09 161.436C1844.9 165.368 1860.48 165.368 1875.28 161.436C1890.09 157.504 1905.66 157.504 1920.47 161.436C1935.27 165.368 1950.85 165.368 1965.66 161.436C1980.46 157.504 1996.04 157.504 2010.84 161.436C2025.65 165.368 2041.23 165.368 2056.03 161.436C2070.84 157.504 2086.41 157.504 2101.22 161.436C2116.02 165.368 2131.6 165.368 2146.41 161.436C2161.21 157.504 2176.79 157.504 2191.59 161.436C2206.4 165.368 2221.98 165.368 2236.78 161.436C2251.59 157.504 2267.16 157.504 2281.97 161.436C2296.77 165.368 2312.35 165.368 2327.16 161.436C2341.96 157.504 2357.54 157.504 2372.34 161.436C2387.15 165.368 2402.73 165.368 2417.53 161.436C2432.34 157.504 2447.91 157.504 2462.72 161.436C2477.52 165.368 2493.1 165.368 2507.91 161.436C2522.71 157.504 2538.29 157.504 2553.09 161.436C2567.9 165.368 2583.48 165.368 2598.28 161.436C2613.09 157.504 2628.66 157.504 2643.47 161.436C2658.27 165.368 2673.85 165.368 2688.66 161.436C2703.46 157.504 2719.04 157.504 2733.84 161.436C2748.65 165.368 2764.23 165.368 2779.03 161.436C2793.84 157.504 2809.41 157.504 2824.22 161.436C2839.02 165.368 2854.6 165.368 2869.41 161.436L2892 155.436" stroke="#56CCF2" stroke-opacity="0.4" stroke-width="3"></path> <path d="M0 183.333L22.5937 189.333C37.3996 193.265 52.9753 193.265 67.7812 189.333C82.5872 185.402 98.1628 185.402 112.969 189.333C127.775 193.265 143.35 193.265 158.156 189.333C172.962 185.402 188.538 185.402 203.344 189.333C218.15 193.265 233.725 193.265 248.531 189.333C263.337 185.402 278.913 185.402 293.719 189.333C308.525 193.265 324.1 193.265 338.906 189.333C353.712 185.402 369.288 185.402 384.094 189.333C398.9 193.265 414.475 193.265 429.281 189.333C444.087 185.402 459.663 185.402 474.469 189.333C489.275 193.265 504.85 193.265 519.656 189.333C534.462 185.402 550.038 185.402 564.844 189.333C579.65 193.265 595.225 193.265 610.031 189.333C624.837 185.402 640.413 185.402 655.219 189.333C670.025 193.265 685.6 193.265 700.406 189.333C715.212 185.402 730.788 185.402 745.594 189.333C760.4 193.265 775.975 193.265 790.781 189.333C805.587 185.402 821.163 185.402 835.969 189.333C850.775 193.265 866.35 193.265 881.156 189.333C895.962 185.402 911.538 185.402 926.344 189.333C941.15 193.265 956.725 193.265 971.531 189.333C986.337 185.402 1001.91 185.402 1016.72 189.333C1031.52 193.265 1047.1 193.265 1061.91 189.333C1076.71 185.402 1092.29 185.402 1107.09 189.333C1121.9 193.265 1137.48 193.265 1152.28 189.333C1167.09 185.402 1182.66 185.402 1197.47 189.333C1212.27 193.265 1227.85 193.265 1242.66 189.333C1257.46 185.402 1273.04 185.402 1287.84 189.333C1302.65 193.265 1318.23 193.265 1333.03 189.333C1347.84 185.402 1363.41 185.402 1378.22 189.333C1393.02 193.265 1408.6 193.265 1423.41 189.333V189.333C1438.21 185.402 1453.79 185.402 1468.59 189.333V189.333C1483.4 193.265 1498.98 193.265 1513.78 189.333C1528.59 185.402 1544.16 185.402 1558.97 189.333C1573.77 193.265 1589.35 193.265 1604.16 189.333C1618.96 185.402 1634.54 185.402 1649.34 189.333C1664.15 193.265 1679.73 193.265 1694.53 189.333C1709.34 185.402 1724.91 185.402 1739.72 189.333C1754.52 193.265 1770.1 193.265 1784.91 189.333C1799.71 185.402 1815.29 185.402 1830.09 189.333C1844.9 193.265 1860.48 193.265 1875.28 189.333C1890.09 185.402 1905.66 185.402 1920.47 189.333C1935.27 193.265 1950.85 193.265 1965.66 189.333C1980.46 185.402 1996.04 185.402 2010.84 189.333C2025.65 193.265 2041.23 193.265 2056.03 189.333C2070.84 185.402 2086.41 185.402 2101.22 189.333C2116.02 193.265 2131.6 193.265 2146.41 189.333C2161.21 185.402 2176.79 185.402 2191.59 189.333C2206.4 193.265 2221.98 193.265 2236.78 189.333C2251.59 185.402 2267.16 185.402 2281.97 189.333C2296.77 193.265 2312.35 193.265 2327.16 189.333C2341.96 185.402 2357.54 185.402 2372.34 189.333C2387.15 193.265 2402.73 193.265 2417.53 189.333C2432.34 185.402 2447.91 185.402 2462.72 189.333C2477.52 193.265 2493.1 193.265 2507.91 189.333C2522.71 185.402 2538.29 185.402 2553.09 189.333C2567.9 193.265 2583.48 193.265 2598.28 189.333C2613.09 185.402 2628.66 185.402 2643.47 189.333C2658.27 193.265 2673.85 193.265 2688.66 189.333C2703.46 185.402 2719.04 185.402 2733.84 189.333C2748.65 193.265 2764.23 193.265 2779.03 189.333C2793.84 185.402 2809.41 185.402 2824.22 189.333C2839.02 193.265 2854.6 193.265 2869.41 189.333L2892 183.333" stroke="#56CCF2" stroke-opacity="0.4" stroke-width="3"></path> <path d="M0 211.231L22.5937 217.231C37.3996 221.163 52.9753 221.163 67.7812 217.231C82.5872 213.299 98.1628 213.299 112.969 217.231C127.775 221.163 143.35 221.163 158.156 217.231C172.962 213.299 188.538 213.299 203.344 217.231C218.15 221.163 233.725 221.163 248.531 217.231C263.337 213.299 278.913 213.299 293.719 217.231C308.525 221.163 324.1 221.163 338.906 217.231C353.712 213.299 369.288 213.299 384.094 217.231C398.9 221.163 414.475 221.163 429.281 217.231C444.087 213.299 459.663 213.299 474.469 217.231C489.275 221.163 504.85 221.163 519.656 217.231C534.462 213.299 550.038 213.299 564.844 217.231C579.65 221.163 595.225 221.163 610.031 217.231C624.837 213.299 640.413 213.299 655.219 217.231C670.025 221.163 685.6 221.163 700.406 217.231C715.212 213.299 730.788 213.299 745.594 217.231C760.4 221.163 775.975 221.163 790.781 217.231C805.587 213.299 821.163 213.299 835.969 217.231C850.775 221.163 866.35 221.163 881.156 217.231C895.962 213.299 911.538 213.299 926.344 217.231C941.15 221.163 956.725 221.163 971.531 217.231C986.337 213.299 1001.91 213.299 1016.72 217.231C1031.52 221.163 1047.1 221.163 1061.91 217.231C1076.71 213.299 1092.29 213.299 1107.09 217.231C1121.9 221.163 1137.48 221.163 1152.28 217.231C1167.09 213.299 1182.66 213.299 1197.47 217.231C1212.27 221.163 1227.85 221.163 1242.66 217.231C1257.46 213.299 1273.04 213.299 1287.84 217.231C1302.65 221.163 1318.23 221.163 1333.03 217.231C1347.84 213.299 1363.41 213.299 1378.22 217.231C1393.02 221.163 1408.6 221.163 1423.41 217.231V217.231C1438.21 213.299 1453.79 213.299 1468.59 217.231V217.231C1483.4 221.163 1498.98 221.163 1513.78 217.231C1528.59 213.299 1544.16 213.299 1558.97 217.231C1573.77 221.163 1589.35 221.163 1604.16 217.231C1618.96 213.299 1634.54 213.299 1649.34 217.231C1664.15 221.163 1679.73 221.163 1694.53 217.231C1709.34 213.299 1724.91 213.299 1739.72 217.231C1754.52 221.163 1770.1 221.163 1784.91 217.231C1799.71 213.299 1815.29 213.299 1830.09 217.231C1844.9 221.163 1860.48 221.163 1875.28 217.231C1890.09 213.299 1905.66 213.299 1920.47 217.231C1935.27 221.163 1950.85 221.163 1965.66 217.231C1980.46 213.299 1996.04 213.299 2010.84 217.231C2025.65 221.163 2041.23 221.163 2056.03 217.231C2070.84 213.299 2086.41 213.299 2101.22 217.231C2116.02 221.163 2131.6 221.163 2146.41 217.231C2161.21 213.299 2176.79 213.299 2191.59 217.231C2206.4 221.163 2221.98 221.163 2236.78 217.231C2251.59 213.299 2267.16 213.299 2281.97 217.231C2296.77 221.163 2312.35 221.163 2327.16 217.231C2341.96 213.299 2357.54 213.299 2372.34 217.231C2387.15 221.163 2402.73 221.163 2417.53 217.231C2432.34 213.299 2447.91 213.299 2462.72 217.231C2477.52 221.163 2493.1 221.163 2507.91 217.231C2522.71 213.299 2538.29 213.299 2553.09 217.231C2567.9 221.163 2583.48 221.163 2598.28 217.231C2613.09 213.299 2628.66 213.299 2643.47 217.231C2658.27 221.163 2673.85 221.163 2688.66 217.231C2703.46 213.299 2719.04 213.299 2733.84 217.231C2748.65 221.163 2764.23 221.163 2779.03 217.231C2793.84 213.299 2809.41 213.299 2824.22 217.231C2839.02 221.163 2854.6 221.163 2869.41 217.231L2892 211.231" stroke="#56CCF2" stroke-opacity="0.4" stroke-width="3"></path> <path d="M0 239.128L22.5937 245.128C37.3996 249.06 52.9753 249.06 67.7812 245.128C82.5872 241.197 98.1628 241.197 112.969 245.128C127.775 249.06 143.35 249.06 158.156 245.128C172.962 241.197 188.538 241.197 203.344 245.128C218.15 249.06 233.725 249.06 248.531 245.128C263.337 241.197 278.913 241.197 293.719 245.128C308.525 249.06 324.1 249.06 338.906 245.128C353.712 241.197 369.288 241.197 384.094 245.128C398.9 249.06 414.475 249.06 429.281 245.128C444.087 241.197 459.663 241.197 474.469 245.128C489.275 249.06 504.85 249.06 519.656 245.128C534.462 241.197 550.038 241.197 564.844 245.128C579.65 249.06 595.225 249.06 610.031 245.128C624.837 241.197 640.413 241.197 655.219 245.128C670.025 249.06 685.6 249.06 700.406 245.128C715.212 241.197 730.788 241.197 745.594 245.128C760.4 249.06 775.975 249.06 790.781 245.128C805.587 241.197 821.163 241.197 835.969 245.128C850.775 249.06 866.35 249.06 881.156 245.128C895.962 241.197 911.538 241.197 926.344 245.128C941.15 249.06 956.725 249.06 971.531 245.128C986.337 241.197 1001.91 241.197 1016.72 245.128C1031.52 249.06 1047.1 249.06 1061.91 245.128C1076.71 241.197 1092.29 241.197 1107.09 245.128C1121.9 249.06 1137.48 249.06 1152.28 245.128C1167.09 241.197 1182.66 241.197 1197.47 245.128C1212.27 249.06 1227.85 249.06 1242.66 245.128C1257.46 241.197 1273.04 241.197 1287.84 245.128C1302.65 249.06 1318.23 249.06 1333.03 245.128C1347.84 241.197 1363.41 241.197 1378.22 245.128C1393.02 249.06 1408.6 249.06 1423.41 245.128V245.128C1438.21 241.197 1453.79 241.197 1468.59 245.128V245.128C1483.4 249.06 1498.98 249.06 1513.78 245.128C1528.59 241.197 1544.16 241.197 1558.97 245.128C1573.77 249.06 1589.35 249.06 1604.16 245.128C1618.96 241.197 1634.54 241.197 1649.34 245.128C1664.15 249.06 1679.73 249.06 1694.53 245.128C1709.34 241.197 1724.91 241.197 1739.72 245.128C1754.52 249.06 1770.1 249.06 1784.91 245.128C1799.71 241.197 1815.29 241.197 1830.09 245.128C1844.9 249.06 1860.48 249.06 1875.28 245.128C1890.09 241.197 1905.66 241.197 1920.47 245.128C1935.27 249.06 1950.85 249.06 1965.66 245.128C1980.46 241.197 1996.04 241.197 2010.84 245.128C2025.65 249.06 2041.23 249.06 2056.03 245.128C2070.84 241.197 2086.41 241.197 2101.22 245.128C2116.02 249.06 2131.6 249.06 2146.41 245.128C2161.21 241.197 2176.79 241.197 2191.59 245.128C2206.4 249.06 2221.98 249.06 2236.78 245.128C2251.59 241.197 2267.16 241.197 2281.97 245.128C2296.77 249.06 2312.35 249.06 2327.16 245.128C2341.96 241.197 2357.54 241.197 2372.34 245.128C2387.15 249.06 2402.73 249.06 2417.53 245.128C2432.34 241.197 2447.91 241.197 2462.72 245.128C2477.52 249.06 2493.1 249.06 2507.91 245.128C2522.71 241.197 2538.29 241.197 2553.09 245.128C2567.9 249.06 2583.48 249.06 2598.28 245.128C2613.09 241.197 2628.66 241.197 2643.47 245.128C2658.27 249.06 2673.85 249.06 2688.66 245.128C2703.46 241.197 2719.04 241.197 2733.84 245.128C2748.65 249.06 2764.23 249.06 2779.03 245.128C2793.84 241.197 2809.41 241.197 2824.22 245.128C2839.02 249.06 2854.6 249.06 2869.41 245.128L2892 239.128" stroke="#56CCF2" stroke-opacity="0.4" stroke-width="3"></path> <path d="M0 267.026L22.5937 273.026C37.3996 276.958 52.9753 276.958 67.7812 273.026C82.5872 269.094 98.1628 269.094 112.969 273.026C127.775 276.958 143.35 276.958 158.156 273.026C172.962 269.094 188.538 269.094 203.344 273.026C218.15 276.958 233.725 276.958 248.531 273.026C263.337 269.094 278.913 269.094 293.719 273.026C308.525 276.958 324.1 276.958 338.906 273.026C353.712 269.094 369.288 269.094 384.094 273.026C398.9 276.958 414.475 276.958 429.281 273.026C444.087 269.094 459.663 269.094 474.469 273.026C489.275 276.958 504.85 276.958 519.656 273.026C534.462 269.094 550.038 269.094 564.844 273.026C579.65 276.958 595.225 276.958 610.031 273.026C624.837 269.094 640.413 269.094 655.219 273.026C670.025 276.958 685.6 276.958 700.406 273.026C715.212 269.094 730.788 269.094 745.594 273.026C760.4 276.958 775.975 276.958 790.781 273.026C805.587 269.094 821.163 269.094 835.969 273.026C850.775 276.958 866.35 276.958 881.156 273.026C895.962 269.094 911.538 269.094 926.344 273.026C941.15 276.958 956.725 276.958 971.531 273.026C986.337 269.094 1001.91 269.094 1016.72 273.026C1031.52 276.958 1047.1 276.958 1061.91 273.026C1076.71 269.094 1092.29 269.094 1107.09 273.026C1121.9 276.958 1137.48 276.958 1152.28 273.026C1167.09 269.094 1182.66 269.094 1197.47 273.026C1212.27 276.958 1227.85 276.958 1242.66 273.026C1257.46 269.094 1273.04 269.094 1287.84 273.026C1302.65 276.958 1318.23 276.958 1333.03 273.026C1347.84 269.094 1363.41 269.094 1378.22 273.026C1393.02 276.958 1408.6 276.958 1423.41 273.026V273.026C1438.21 269.094 1453.79 269.094 1468.59 273.026V273.026C1483.4 276.958 1498.98 276.958 1513.78 273.026C1528.59 269.094 1544.16 269.094 1558.97 273.026C1573.77 276.958 1589.35 276.958 1604.16 273.026C1618.96 269.094 1634.54 269.094 1649.34 273.026C1664.15 276.958 1679.73 276.958 1694.53 273.026C1709.34 269.094 1724.91 269.094 1739.72 273.026C1754.52 276.958 1770.1 276.958 1784.91 273.026C1799.71 269.094 1815.29 269.094 1830.09 273.026C1844.9 276.958 1860.48 276.958 1875.28 273.026C1890.09 269.094 1905.66 269.094 1920.47 273.026C1935.27 276.958 1950.85 276.958 1965.66 273.026C1980.46 269.094 1996.04 269.094 2010.84 273.026C2025.65 276.958 2041.23 276.958 2056.03 273.026C2070.84 269.094 2086.41 269.094 2101.22 273.026C2116.02 276.958 2131.6 276.958 2146.41 273.026C2161.21 269.094 2176.79 269.094 2191.59 273.026C2206.4 276.958 2221.98 276.958 2236.78 273.026C2251.59 269.094 2267.16 269.094 2281.97 273.026C2296.77 276.958 2312.35 276.958 2327.16 273.026C2341.96 269.094 2357.54 269.094 2372.34 273.026C2387.15 276.958 2402.73 276.958 2417.53 273.026C2432.34 269.094 2447.91 269.094 2462.72 273.026C2477.52 276.958 2493.1 276.958 2507.91 273.026C2522.71 269.094 2538.29 269.094 2553.09 273.026C2567.9 276.958 2583.48 276.958 2598.28 273.026C2613.09 269.094 2628.66 269.094 2643.47 273.026C2658.27 276.958 2673.85 276.958 2688.66 273.026C2703.46 269.094 2719.04 269.094 2733.84 273.026C2748.65 276.958 2764.23 276.958 2779.03 273.026C2793.84 269.094 2809.41 269.094 2824.22 273.026C2839.02 276.958 2854.6 276.958 2869.41 273.026L2892 267.026" stroke="#56CCF2" stroke-opacity="0.4" stroke-width="3"></path> <path d="M0 294.923L22.5937 300.923C37.3996 304.855 52.9753 304.855 67.7812 300.923C82.5872 296.991 98.1628 296.991 112.969 300.923C127.775 304.855 143.35 304.855 158.156 300.923C172.962 296.991 188.538 296.991 203.344 300.923C218.15 304.855 233.725 304.855 248.531 300.923C263.337 296.991 278.913 296.991 293.719 300.923C308.525 304.855 324.1 304.855 338.906 300.923C353.712 296.991 369.288 296.991 384.094 300.923C398.9 304.855 414.475 304.855 429.281 300.923C444.087 296.991 459.663 296.991 474.469 300.923C489.275 304.855 504.85 304.855 519.656 300.923C534.462 296.991 550.038 296.991 564.844 300.923C579.65 304.855 595.225 304.855 610.031 300.923C624.837 296.991 640.413 296.991 655.219 300.923C670.025 304.855 685.6 304.855 700.406 300.923C715.212 296.991 730.788 296.991 745.594 300.923C760.4 304.855 775.975 304.855 790.781 300.923C805.587 296.991 821.163 296.991 835.969 300.923C850.775 304.855 866.35 304.855 881.156 300.923C895.962 296.991 911.538 296.991 926.344 300.923C941.15 304.855 956.725 304.855 971.531 300.923C986.337 296.991 1001.91 296.991 1016.72 300.923C1031.52 304.855 1047.1 304.855 1061.91 300.923C1076.71 296.991 1092.29 296.991 1107.09 300.923C1121.9 304.855 1137.48 304.855 1152.28 300.923C1167.09 296.991 1182.66 296.991 1197.47 300.923C1212.27 304.855 1227.85 304.855 1242.66 300.923C1257.46 296.991 1273.04 296.991 1287.84 300.923C1302.65 304.855 1318.23 304.855 1333.03 300.923C1347.84 296.991 1363.41 296.991 1378.22 300.923C1393.02 304.855 1408.6 304.855 1423.41 300.923V300.923C1438.21 296.991 1453.79 296.991 1468.59 300.923V300.923C1483.4 304.855 1498.98 304.855 1513.78 300.923C1528.59 296.991 1544.16 296.991 1558.97 300.923C1573.77 304.855 1589.35 304.855 1604.16 300.923C1618.96 296.991 1634.54 296.991 1649.34 300.923C1664.15 304.855 1679.73 304.855 1694.53 300.923C1709.34 296.991 1724.91 296.991 1739.72 300.923C1754.52 304.855 1770.1 304.855 1784.91 300.923C1799.71 296.991 1815.29 296.991 1830.09 300.923C1844.9 304.855 1860.48 304.855 1875.28 300.923C1890.09 296.991 1905.66 296.991 1920.47 300.923C1935.27 304.855 1950.85 304.855 1965.66 300.923C1980.46 296.991 1996.04 296.991 2010.84 300.923C2025.65 304.855 2041.23 304.855 2056.03 300.923C2070.84 296.991 2086.41 296.991 2101.22 300.923C2116.02 304.855 2131.6 304.855 2146.41 300.923C2161.21 296.991 2176.79 296.991 2191.59 300.923C2206.4 304.855 2221.98 304.855 2236.78 300.923C2251.59 296.991 2267.16 296.991 2281.97 300.923C2296.77 304.855 2312.35 304.855 2327.16 300.923C2341.96 296.991 2357.54 296.991 2372.34 300.923C2387.15 304.855 2402.73 304.855 2417.53 300.923C2432.34 296.991 2447.91 296.991 2462.72 300.923C2477.52 304.855 2493.1 304.855 2507.91 300.923C2522.71 296.991 2538.29 296.991 2553.09 300.923C2567.9 304.855 2583.48 304.855 2598.28 300.923C2613.09 296.991 2628.66 296.991 2643.47 300.923C2658.27 304.855 2673.85 304.855 2688.66 300.923C2703.46 296.991 2719.04 296.991 2733.84 300.923C2748.65 304.855 2764.23 304.855 2779.03 300.923C2793.84 296.991 2809.41 296.991 2824.22 300.923C2839.02 304.855 2854.6 304.855 2869.41 300.923L2892 294.923" stroke="#56CCF2" stroke-opacity="0.4" stroke-width="3"></path> <path d="M0 322.821L22.5937 328.821C37.3996 332.753 52.9753 332.753 67.7812 328.821C82.5872 324.889 98.1628 324.889 112.969 328.821C127.775 332.753 143.35 332.753 158.156 328.821C172.962 324.889 188.538 324.889 203.344 328.821C218.15 332.753 233.725 332.753 248.531 328.821C263.337 324.889 278.913 324.889 293.719 328.821C308.525 332.753 324.1 332.753 338.906 328.821C353.712 324.889 369.288 324.889 384.094 328.821C398.9 332.753 414.475 332.753 429.281 328.821C444.087 324.889 459.663 324.889 474.469 328.821C489.275 332.753 504.85 332.753 519.656 328.821C534.462 324.889 550.038 324.889 564.844 328.821C579.65 332.753 595.225 332.753 610.031 328.821C624.837 324.889 640.413 324.889 655.219 328.821C670.025 332.753 685.6 332.753 700.406 328.821C715.212 324.889 730.788 324.889 745.594 328.821C760.4 332.753 775.975 332.753 790.781 328.821C805.587 324.889 821.163 324.889 835.969 328.821C850.775 332.753 866.35 332.753 881.156 328.821C895.962 324.889 911.538 324.889 926.344 328.821C941.15 332.753 956.725 332.753 971.531 328.821C986.337 324.889 1001.91 324.889 1016.72 328.821C1031.52 332.753 1047.1 332.753 1061.91 328.821C1076.71 324.889 1092.29 324.889 1107.09 328.821C1121.9 332.753 1137.48 332.753 1152.28 328.821C1167.09 324.889 1182.66 324.889 1197.47 328.821C1212.27 332.753 1227.85 332.753 1242.66 328.821C1257.46 324.889 1273.04 324.889 1287.84 328.821C1302.65 332.753 1318.23 332.753 1333.03 328.821C1347.84 324.889 1363.41 324.889 1378.22 328.821C1393.02 332.753 1408.6 332.753 1423.41 328.821V328.821C1438.21 324.889 1453.79 324.889 1468.59 328.821V328.821C1483.4 332.753 1498.98 332.753 1513.78 328.821C1528.59 324.889 1544.16 324.889 1558.97 328.821C1573.77 332.753 1589.35 332.753 1604.16 328.821C1618.96 324.889 1634.54 324.889 1649.34 328.821C1664.15 332.753 1679.73 332.753 1694.53 328.821C1709.34 324.889 1724.91 324.889 1739.72 328.821C1754.52 332.753 1770.1 332.753 1784.91 328.821C1799.71 324.889 1815.29 324.889 1830.09 328.821C1844.9 332.753 1860.48 332.753 1875.28 328.821C1890.09 324.889 1905.66 324.889 1920.47 328.821C1935.27 332.753 1950.85 332.753 1965.66 328.821C1980.46 324.889 1996.04 324.889 2010.84 328.821C2025.65 332.753 2041.23 332.753 2056.03 328.821C2070.84 324.889 2086.41 324.889 2101.22 328.821C2116.02 332.753 2131.6 332.753 2146.41 328.821C2161.21 324.889 2176.79 324.889 2191.59 328.821C2206.4 332.753 2221.98 332.753 2236.78 328.821C2251.59 324.889 2267.16 324.889 2281.97 328.821C2296.77 332.753 2312.35 332.753 2327.16 328.821C2341.96 324.889 2357.54 324.889 2372.34 328.821C2387.15 332.753 2402.73 332.753 2417.53 328.821C2432.34 324.889 2447.91 324.889 2462.72 328.821C2477.52 332.753 2493.1 332.753 2507.91 328.821C2522.71 324.889 2538.29 324.889 2553.09 328.821C2567.9 332.753 2583.48 332.753 2598.28 328.821C2613.09 324.889 2628.66 324.889 2643.47 328.821C2658.27 332.753 2673.85 332.753 2688.66 328.821C2703.46 324.889 2719.04 324.889 2733.84 328.821C2748.65 332.753 2764.23 332.753 2779.03 328.821C2793.84 324.889 2809.41 324.889 2824.22 328.821C2839.02 332.753 2854.6 332.753 2869.41 328.821L2892 322.821" stroke="#56CCF2" stroke-opacity="0.4" stroke-width="3"></path> </g> <defs> <clipPath id="clip0"> <rect width="2900" height="334" fill="white"></rect> </clipPath> </defs> </svg> 